<?xml version="1.0" encoding="utf-8"?>
<!-- Generator: Adobe Illustrator 22.0.0, SVG Export Plug-In . SVG Version: 6.00 Build 0)  -->
<svg version="1.1" id="Layer_1" xmlns="http://www.w3.org/2000/svg" xmlns:xlink="http://www.w3.org/1999/xlink" x="0px" y="0px"
	 viewBox="0 0 600 300" style="enable-background:new 0 0 600 300;" xml:space="preserve">
<style type="text/css">
	.st0{fill:#FFCA00;}
	.st1{font-family:'NuevaStd-Bold';}
	.st2{font-size:50px;}
</style>
<rect x="2" class="st0" width="598" height="300"/>
<g>
	<path d="M286,196.4c0.3-0.1,0.6-0.2,0.9-0.2c3.3,0.1,6.5,0.2,9.7,0.3c0.8,0,1.5,0.1,2.3,0.1c3.9,0.2,7.9,0.5,11.8,0.7
		c6.8,0.3,13.6,0.5,20.3-1.8c1.6-0.6,3.3-0.9,5-1.4c1.5-0.5,2-1.3,1.9-2.9c-0.2-2.6-0.7-5-2.1-7.3c-1.1-1.8-2.6-3.2-4.6-3.9
		c-3.3-1.2-6.7-2.5-10.1-3.4c-6.6-1.7-13.3-3.1-19.9-4.8c-8.4-2.3-16.6-4.8-25-7.2c-8.7-2.6-17.4-4.9-26.4-6.2
		c-6-0.9-12-1.3-18.1-1.3c-9.1,0-18.2,0.7-27.2,2.3c-8,1.4-16,3.2-24,4.8c-3.3,0.7-3.2-0.1-3.2,4c0,10.2,0,20.4,0,30.6
		c0,2.5,0.1,2.6,2.6,2.4c3.6-0.3,7.2-0.7,10.8-1c2.2-0.2,4.3,0,6.5-0.1c1.2,0,2.5-0.1,3.6-0.5c5.1-1.8,10.4-1.7,15.7-1.2
		c8.8,0.9,17.2,3.5,25.6,6c7.8,2.3,15.5,4.7,23.2,7c5.9,1.7,12,3.1,17.9,4.9c5.2,1.6,10.2,3.6,15.3,5.4c0.9,0.3,1.8,0.7,2.7,1.1
		c3.1,1.1,6.1,1.1,9.1-0.2c12.9-5.9,26.3-10.7,39.6-15.7c7.8-2.9,15.4-6.4,23.1-9.6c6.2-2.6,12.2-5.5,18.5-7.7
		c7.1-2.5,13.9-5.5,20.4-9.1c1.4-0.8,3-1.4,4.4-2.2c2.1-1.2,3.9-2.9,5.4-4.7c1.1-1.3,0.7-3.7-0.5-5.2c-1.4-1.6-3.2-2.6-5.1-3.2
		c-1.9-0.6-3.8-0.8-5.8-0.9c-6.4-0.1-12.7,0.7-19,1.8c-14.4,2.5-28.4,6.4-42.6,10c-2.5,0.6-5,1.1-7.5,1.6c-1.4,0.3-1.5,0.5-1.2,2
		c0.8,3.1,1.6,6.2,2.2,9.3c0.3,1.5,0.1,3.2,0,4.7c-0.2,2.8-2,4.6-4.4,5.8c-3,1.4-6.2,2.2-9.4,2.4c-5.3,0.3-10.6,0.5-15.9,0.4
		c-7.2-0.2-14.3-1.2-21.3-3c-2-0.5-3.8-1.3-5.6-2.3C286,196.7,286,196.6,286,196.4z"/>
	<path d="M401.1,142.5c-1-1.8-1.9-3.6-2.9-5.3c-3.6-5.7-7.7-10.9-12.5-15.6c-5.3-5.2-10.6-10.3-16.7-14.6
		c-10.1-7.1-21.3-11.4-33.4-13.4c-9.9-1.6-19.8-1.7-29.7-1.6c-6.5,0.1-13,0.3-19.5,0.5c-8.3,0.2-16.7,0.6-25,0.6
		c-5.2,0-10.4-0.6-15.6-1c-6.4-0.4-12.8-1.3-19.1-2.8c-10.4-2.5-20.6-5.4-30.2-10.1c-1.9-1-3.9-1.8-6.2-2.8c0.3,0.6,0.5,0.9,0.7,1.1
		c8.9,9.1,18.5,17.1,29.8,23.1c9.2,4.8,18.9,8.3,29.2,9.8c4.5,0.7,9.1,1.1,13.7,1.2c7.3,0.3,14.5,0.4,21.8,0.4
		c5.7,0,11.5-0.3,17.2-0.4c2.4,0,4.8,0.2,7.3,0.3c1.1,0,2.2,0.2,3.2,0.2c11.9-0.1,23.5,1.6,34.9,4.8c13.5,3.7,26.1,9.5,37.9,16.9
		c3.9,2.5,7.8,5,11.8,7.5c1,0.6,2,1.1,3,1.6C400.9,142.7,401,142.6,401.1,142.5z"/>
	<path d="M315.8,116.5c0.3,1.2,0.5,2.1,0.8,2.9c0.8,2.8,1.7,5.5,2.3,8.3c1.1,5.3-1.5,9.4-6.7,11c-2.5,0.8-5,1.5-7.5,2.3
		c-0.6,0.2-1.2,0.4-2,0.7c0.3,0.9,0.5,1.8,0.9,2.5c2,4.3,5.1,7.6,8.9,10.3c5.8,4.1,12.1,6.5,19.3,6c3.8-0.2,7.4-1.3,10.3-4
		c1-0.9,2-1.8,3-2.6c2.7-1.9,4.2-4.6,5.4-7.5c2.6-6.2,3-12.7,2.2-19.3c-0.1-1.1-0.3-2.3-0.5-3.4c-0.2-1.2-0.9-1.9-2-2.2
		c-8.2-1.9-16.3-4.2-24.7-4.7c-2.5-0.1-5-0.2-7.4-0.4C317.3,116.5,316.7,116.5,315.8,116.5z"/>
	<path d="M296.4,118.8c-1.5,1.9-2.4,3.9-3,6c-2.9,10.5-1.8,20.3,4.6,29.3c6,8.5,13.9,14.1,24.1,16.4c4.7,1.1,9.2,0.6,13.8-0.4
		c8.1-1.8,14.7-6.2,20.2-12.3c6.6-7.3,9.2-16,8.6-25.7c-0.1-0.9-0.4-1.9-0.6-2.8c-0.3-1-1-1.2-1.9-1.1c-1.8,0.2-3.1,1.5-3.3,3.5
		c-0.1,1.2-0.2,2.4-0.1,3.6c0.8,7.5-2.3,13.7-7.1,19.1c-4.7,5.3-10.5,9-17.5,10.2c-8.6,1.6-16.8,0.7-23.9-5
		c-6.5-5.1-10.2-11.9-11.5-20.1c-0.9-5.6,0.1-11,1.3-16.5c0.1-0.4,0.2-0.7,0.2-1.1c0.2-0.8-0.1-1.5-1-1.8
		C298.5,119.8,297.6,119.3,296.4,118.8z"/>
</g>
<text transform="matrix(1 0 0 1 89.803 283.9803)" class="st1 st2">PLEDGE YOUR EYES</text>
</svg>
