<?xml version="1.0" encoding="utf-8"?>
<!-- Generator: Adobe Illustrator 22.0.0, SVG Export Plug-In . SVG Version: 6.00 Build 0)  -->
<svg version="1.1" id="Layer_1" xmlns="http://www.w3.org/2000/svg" xmlns:xlink="http://www.w3.org/1999/xlink" x="0px" y="0px"
	 viewBox="0 0 500 180.5" style="enable-background:new 0 0 500 180.5;" xml:space="preserve">
<style type="text/css">
	.st0{fill:#1D6B87;}
	.st1{fill:#FFFFFF;}
	.st2{fill:url(#SVGID_1_);}
	.st3{font-family:'Poppins-Medium';}
	.st4{font-size:42.5692px;}
</style>
<title>banner-sticky</title>
<rect y="-0.2" class="st0" width="500" height="181.2"/>
<g>
	<path class="st1" d="M92.9,59.8H77.7V21.7h14.5c8,0,12.3,4.4,12.3,9.8c0,4.6-2.8,7.4-6.5,8.7c4.1,0.7,7.3,4.8,7.3,9.3
		C105.4,55.3,100.7,59.8,92.9,59.8z M91.6,26.8h-7.7v10.9h7.7c4.1,0,6.5-1.9,6.5-5.4S95.7,26.8,91.6,26.8z M92.1,42.8h-8.2v11.9h8.4
		c4.2,0,6.8-2.1,6.8-5.8S96.3,42.8,92.1,42.8z"/>
	<path class="st1" d="M111.3,21.6c0-2.2,1.8-4,4-3.9c2.2,0,4,1.8,3.9,4c0,2.2-1.8,3.9-3.9,3.9C113.2,25.7,111.4,23.9,111.3,21.6
		C111.3,21.7,111.3,21.7,111.3,21.6z M112.2,29.6h6.2v30.1h-6.2V29.6z"/>
	<path class="st1" d="M145.8,34.7l-13.7,20h13.7v5.1h-20.9v-5.1l13.7-20h-13.7v-5.1h20.9V34.7z"/>
	<path class="st1" d="M173.8,42.9c0-5.5-3-8.4-7.6-8.4c-4.5,0-7.6,2.8-7.6,8.4v16.9h-6.2V29.6h6.2V33c2.3-2.6,5.5-4,8.9-3.9
		c7.1,0,12.4,4.4,12.4,12.9v17.8h-6.2L173.8,42.9z"/>
	<path class="st1" d="M200.9,60.2c-8.7,0-15.1-6.1-15.1-15.6s6.2-15.6,15.1-15.6c8.6,0,14.7,6,14.7,14.8c0,1-0.1,2-0.2,3.1h-23
		c0.4,5,4,8,8.6,8c3.8,0,6-1.9,7.1-4.2h6.7C213.1,56,208.3,60.2,200.9,60.2z M192.4,42h16.7c-0.1-4.7-3.8-7.6-8.4-7.6
		C196.4,34.4,193,37.2,192.4,42z"/>
	<path class="st1" d="M232.7,60.2c-7.2,0-12.3-4.3-12.6-9.7h6.5c0.2,2.5,2.6,4.5,6,4.5c3.6,0,5.5-1.5,5.5-3.6
		c0-5.9-17.5-2.5-17.5-13.6c0-4.8,4.5-8.7,11.6-8.7c6.8,0,11.3,3.7,11.7,9.7h-6.2c-0.2-2.6-2.2-4.5-5.6-4.5s-5.1,1.4-5.1,3.4
		c0,6.1,17,2.7,17.4,13.6C244.2,56.4,239.8,60.2,232.7,60.2z"/>
	<path class="st1" d="M261.9,60.2c-7.2,0-12.3-4.3-12.6-9.7h6.5c0.2,2.5,2.6,4.5,6,4.5c3.6,0,5.5-1.5,5.5-3.6
		c0-5.9-17.5-2.5-17.5-13.6c0-4.8,4.5-8.7,11.6-8.7c6.8,0,11.3,3.7,11.7,9.7h-6.2c-0.2-2.6-2.2-4.5-5.6-4.5s-5.1,1.4-5.1,3.5
		c0,6.1,17,2.7,17.4,13.6C273.5,56.4,269,60.2,261.9,60.2z"/>
	<path d="M317.4,52h-15.9l-2.7,7.8h-6.5l13.6-38.1h7.2l13.6,38.1h-6.6L317.4,52z M309.5,29.2l-6.2,17.7h12.4L309.5,29.2z"/>
	<path d="M345.8,44.3h-6.9v15.4h-6.2V21.7h13.1c9,0,13.5,5.1,13.5,11.3C359.2,38.5,355.7,44.3,345.8,44.3z M345.8,39.2
		c4.9,0,7.1-2.4,7.1-6.2c0-3.8-2.2-6.2-7.1-6.2h-6.9v12.4H345.8z"/>
	<path d="M378.3,44.3h-6.9v15.4h-6.2V21.7h13.1c9,0,13.5,5.1,13.5,11.3C391.8,38.5,388.2,44.3,378.3,44.3z M378.3,39.2
		c4.9,0,7.1-2.4,7.1-6.2c0-3.8-2.2-6.2-7.1-6.2h-6.9v12.4H378.3z"/>
	<path d="M410.3,60.1c-7.6,0-13.5-4.2-13.5-10.9h6.7c0.3,3.1,2.5,5.6,6.8,5.6s6.8-2.4,6.8-5.6c-0.1-9.2-20.3-3.2-20.3-17.2
		c0-6.7,5.3-10.8,13.1-10.8c7.3,0,12.4,3.8,13,10.3h-6.9c-0.2-2.6-2.5-4.9-6.4-5c-3.6-0.1-6.4,1.6-6.4,5.3c0,8.6,20.1,3.2,20.1,17.1
		C423.5,54.7,418.8,60.1,410.3,60.1z"/>
	<path class="st1" d="M77.8,75.5h2.1l4.2,9.3l4.2-9.3h2.1v11.9h-2v-8.2l-3.6,8.2h-1.4l-3.6-8.2v8.2h-2V75.5z"/>
	<path class="st1" d="M98.4,87.6c-3.4,0-6.1-2.7-6.1-6.1c0-3.4,2.7-6.1,6.1-6.1c3.4,0,6.1,2.7,6.1,6.1c0.1,3.3-2.5,6-5.8,6.1
		C98.5,87.6,98.5,87.6,98.4,87.6z M98.4,85.9c2.4,0,4.1-1.7,4.1-4.4s-1.7-4.4-4.1-4.4s-4.1,1.7-4.1,4.4S96,85.9,98.4,85.9z"/>
	<path class="st1" d="M111.1,87.4h-4.8V75.5h4.5c2.5,0,3.9,1.4,3.9,3.1c0,1.3-0.8,2.4-2,2.7c1.4,0.3,2.3,1.5,2.3,2.9
		C115,86.1,113.6,87.4,111.1,87.4z M110.7,77.1h-2.4v3.4h2.4c1.3,0,2-0.6,2-1.7C112.8,77.8,112,77.1,110.7,77.1z M110.9,82.1h-2.6
		v3.7h2.6c1.3,0,2.1-0.7,2.1-1.8S112.2,82.1,110.9,82.1z"/>
	<path class="st1" d="M117.2,75.5h2v11.9h-2V75.5z"/>
	<path class="st1" d="M123.6,75.5v10.3h4v1.6h-6V75.5L123.6,75.5z"/>
	<path class="st1" d="M135.9,77.1h-4.6v3.5h4.1v1.6h-4.1v3.6h4.6v1.6h-6.6V75.5h6.6V77.1z"/>
	<path class="st1" d="M149.9,85h-5l-0.9,2.4h-2l4.3-11.9h2.2l4.3,11.9h-2.1L149.9,85z M147.4,77.9l-2,5.5h3.9L147.4,77.9z"/>
	<path class="st1" d="M158.8,82.6h-2.2v4.8h-2V75.5h4.1c2.8,0,4.2,1.6,4.2,3.5C163,80.8,161.9,82.6,158.8,82.6z M158.8,81
		c1.5,0,2.2-0.7,2.2-1.9c0-1.2-0.7-2-2.2-2h-2.2V81H158.8z"/>
	<path class="st1" d="M169,82.6h-2.2v4.8h-2V75.5h4.1c2.8,0,4.2,1.6,4.2,3.5C173.2,80.8,172.1,82.6,169,82.6z M169,81
		c1.5,0,2.2-0.7,2.2-1.9c0-1.2-0.7-2-2.2-2h-2.2V81H169z"/>
	<path class="st1" d="M179,87.6c-2.4,0-4.2-1.3-4.2-3.4h2.1c0.1,1.1,1,1.8,2,1.8c0,0,0.1,0,0.1,0c1.4,0,2.1-0.7,2.1-1.8
		c0-2.9-6.3-1-6.3-5.4c0-2.1,1.7-3.4,4.1-3.4c2.3,0,3.9,1.2,4.1,3.2h-2.1c-0.1-1-1-1.7-2-1.6c-1.1,0-2,0.5-2,1.7
		c0,2.7,6.3,1,6.3,5.4C183.1,85.8,181.7,87.6,179,87.6z"/>
	<path class="st1" d="M189.9,75.5h7v1.6h-5.1v3.5h3.9v1.6h-3.9v5.2h-2L189.9,75.5z"/>
	<path class="st1" d="M204.1,87.6c-3.4,0-6.1-2.7-6.1-6.1c0-3.4,2.7-6.1,6.1-6.1c3.4,0,6.1,2.7,6.1,6.1c0.1,3.3-2.5,6-5.8,6.1
		C204.3,87.6,204.2,87.6,204.1,87.6z M204.1,85.9c2.4,0,4.1-1.7,4.1-4.4s-1.7-4.4-4.1-4.4s-4.1,1.7-4.1,4.4S201.8,85.9,204.1,85.9z"
		/>
	<path class="st1" d="M216.3,75.5c2.8,0,4.2,1.6,4.2,3.6c0,1.7-1.1,3.1-2.8,3.4l3,4.9h-2.4l-2.7-4.8h-1.5v4.8h-2V75.5L216.3,75.5z
		 M216.3,77.1h-2.2v4h2.2c1.5,0,2.2-0.8,2.2-2C218.5,77.9,217.8,77.1,216.3,77.1z"/>
	<path class="st1" d="M232.2,87.4h-4.8V75.5h4.5c2.5,0,3.9,1.4,3.9,3.1c0,1.3-0.8,2.4-2,2.7c1.3,0.3,2.3,1.5,2.3,2.9
		C236.1,86.1,234.6,87.4,232.2,87.4z M231.8,77.1h-2.4v3.4h2.4c1.3,0,2-0.6,2-1.7C233.8,77.8,233.1,77.1,231.8,77.1z M232,82.1h-2.6
		v3.7h2.6c1.3,0,2.1-0.7,2.1-1.8S233.3,82.1,232,82.1z"/>
	<path class="st1" d="M238.2,75.5h2v7.6c0,1.8,1,2.7,2.7,2.7c1.3,0.2,2.6-0.8,2.7-2.1c0-0.2,0-0.4,0-0.6v-7.6h2v7.6
		c0,3-2.2,4.5-4.7,4.5s-4.6-1.4-4.6-4.5L238.2,75.5z"/>
	<path class="st1" d="M254,87.6c-2.4,0-4.2-1.3-4.2-3.4h2.1c0.1,1.1,1,1.8,2,1.8c0,0,0.1,0,0.1,0c1.4,0,2.1-0.7,2.1-1.8
		c0-2.9-6.3-1-6.3-5.4c0-2.1,1.7-3.4,4.1-3.4c2.3,0,3.9,1.2,4.1,3.2h-2.2c-0.1-1-1-1.7-2-1.6c-1.1,0-2,0.5-2,1.7
		c0,2.7,6.3,1,6.3,5.4C258.1,85.8,256.6,87.6,254,87.6z"/>
	<path class="st1" d="M260.4,75.5h2v11.9h-2V75.5z"/>
	<path class="st1" d="M274.7,75.5v11.9h-2l-5.9-8.9v8.9h-2V75.5h2l5.9,8.9v-8.9H274.7z"/>
	<path class="st1" d="M283.9,77.1h-4.7v3.5h4.1v1.6h-4.1v3.6h4.6v1.6h-6.6V75.5h6.6L283.9,77.1z"/>
	<path class="st1" d="M290.2,87.6c-2.4,0-4.2-1.3-4.2-3.4h2.1c0.1,1.1,1,1.8,2,1.8c0,0,0.1,0,0.1,0c1.4,0,2.1-0.7,2.1-1.8
		c0-2.9-6.3-1-6.3-5.4c0-2.1,1.7-3.4,4.1-3.4c2.3,0,3.9,1.2,4.1,3.2H292c-0.1-1-1-1.7-2-1.6c-1.1,0-2,0.5-2,1.7c0,2.7,6.3,1,6.3,5.4
		C294.3,85.8,292.8,87.6,290.2,87.6z"/>
	<path class="st1" d="M300.5,87.6c-2.4,0-4.2-1.3-4.2-3.4h2.1c0.1,1.1,1,1.8,2,1.8c0,0,0.1,0,0.1,0c1.4,0,2.1-0.7,2.1-1.8
		c0-2.9-6.3-1-6.3-5.4c0-2.1,1.7-3.4,4.1-3.4c2.3,0,3.9,1.2,4.1,3.2h-2.2c-0.1-1-1-1.7-2-1.6c-1.1,0-2,0.5-2,1.7
		c0,2.7,6.3,1,6.3,5.4C304.7,85.8,303.2,87.6,300.5,87.6z"/>
	<path class="st1" d="M313.6,77.1h-4.6v3.5h4.1v1.6h-4.1v3.6h4.6v1.6H307V75.5h6.6V77.1z"/>
	<path class="st1" d="M319.9,87.6c-2.4,0-4.2-1.3-4.2-3.4h2.1c0.1,1.1,1,1.8,2,1.8c0,0,0.1,0,0.1,0c1.4,0,2.1-0.7,2.1-1.8
		c0-2.9-6.3-1-6.3-5.4c0-2.1,1.7-3.4,4.1-3.4c2.3,0,3.9,1.2,4.1,3.2h-2.2c-0.1-1-1-1.7-2-1.6c-1.1,0-2,0.5-2,1.7
		c0,2.7,6.3,1,6.3,5.4C324,85.8,322.5,87.6,319.9,87.6z"/>
	<path class="st1" d="M330.8,75.5h2.1l4.2,9.3l4.2-9.3h2.1v11.9h-2v-8.2l-3.6,8.2h-1.3l-3.7-8.2v8.2h-2V75.5z"/>
	<path class="st1" d="M353,85h-5l-0.9,2.4h-2l4.3-11.9h2.2l4.3,11.9h-2.1L353,85z M350.6,77.9l-2,5.5h3.9L350.6,77.9z"/>
	<path class="st1" d="M368,81.5c0,3.7-2.5,5.9-6.3,5.9h-3.9V75.5h3.9C365.5,75.5,368,77.9,368,81.5z M361.7,85.8
		c2.8,0,4.3-1.6,4.3-4.3c0-2.7-1.5-4.4-4.3-4.4h-1.9v8.7H361.7z"/>
	<path class="st1" d="M376.5,77.1h-4.6v3.5h4.1v1.6h-4.1v3.6h4.6v1.6H370V75.5h6.6L376.5,77.1z"/>
	<path class="st1" d="M390,77.1h-4.6v3.5h4.1v1.6h-4.1v3.6h4.6v1.6h-6.6V75.5h6.6L390,77.1z"/>
	<path class="st1" d="M399.6,85h-5l-0.9,2.4h-2l4.3-11.9h2.2l4.3,11.9h-2.1L399.6,85z M397.1,77.9l-2,5.5h3.9L397.1,77.9z"/>
	<path class="st1" d="M408.2,87.6c-2.4,0-4.2-1.3-4.2-3.4h2.1c0.1,1.1,1,1.8,2,1.8c0,0,0.1,0,0.1,0c1.4,0,2.1-0.7,2.1-1.8
		c0-2.9-6.3-1-6.3-5.4c0-2.1,1.7-3.4,4.1-3.4c2.3,0,3.9,1.2,4.1,3.2h-2.2c-0.1-1-1-1.7-2-1.6c-1.1,0-2,0.5-2,1.7
		c0,2.7,6.3,1,6.3,5.4C412.4,85.8,410.9,87.6,408.2,87.6z"/>
	<path class="st1" d="M413.6,75.5h2.2l2.8,5.8l2.8-5.8h2.2l-3.9,7.6v4.3h-2v-4.3L413.6,75.5z"/>
	
		<linearGradient id="SVGID_1_" gradientUnits="userSpaceOnUse" x1="96.6531" y1="111.2122" x2="402.8974" y2="111.2122" gradientTransform="matrix(1 0 0 -1 0 242)">
		<stop  offset="0" style="stop-color:#FFB96A"/>
		<stop  offset="8.000000e-02" style="stop-color:#D7BE5E"/>
		<stop  offset="0.16" style="stop-color:#B6C255"/>
		<stop  offset="0.25" style="stop-color:#9CC54D"/>
		<stop  offset="0.33" style="stop-color:#89C747"/>
		<stop  offset="0.42" style="stop-color:#7EC944"/>
		<stop  offset="0.52" style="stop-color:#7AC943"/>
		<stop  offset="0.54" style="stop-color:#7EC942"/>
		<stop  offset="0.69" style="stop-color:#90CB3C"/>
		<stop  offset="0.84" style="stop-color:#9BCC38"/>
		<stop  offset="1" style="stop-color:#9FCC37"/>
	</linearGradient>
	<path class="st2" d="M105.6,99.9H394c4.9,0,8.9,4,8.9,8.9v44c0,4.9-4,8.9-8.9,8.9H105.6c-4.9,0-8.9-4-8.9-8.9v-44
		C96.7,103.9,100.7,99.9,105.6,99.9z"/>
	
		<image style="overflow:visible;opacity:0.75;enable-background:new    ;" width="1579" height="467" xlink:href="5A292EF8.png"  transform="matrix(0.1784 0 0 0.1784 113.1693 103.7698)">
	</image>
	<text transform="matrix(1 0 0 1 118.9238 145.877)" class="st1 st3 st4">LEARN MORE</text>
</g>
</svg>
