<?xml version="1.0" encoding="utf-8"?>
<!-- Generator: Adobe Illustrator 22.0.0, SVG Export Plug-In . SVG Version: 6.00 Build 0)  -->
<svg version="1.1" xmlns="http://www.w3.org/2000/svg" xmlns:xlink="http://www.w3.org/1999/xlink" x="0px" y="0px"
	 viewBox="0 0 300 100" style="enable-background:new 0 0 300 100;" xml:space="preserve">
<style type="text/css">
	.st0{fill:#FFCA00;}
	.st1{font-family:'NuevaStd-Bold';}
	.st2{font-size:18px;}
</style>
<g id="Layer_1">
</g>
<g id="Layer_2">
	<g>
		<rect x="-0.5" y="0" class="st0" width="301" height="99.7"/>
		<g>
			<path class="st0" d="M45.7,76.3c0.1,0,0.3-0.1,0.4-0.1c1.4,0,2.7,0.1,4.1,0.1c0.3,0,0.6,0,1,0c1.6,0.1,3.3,0.2,5,0.3
				c2.9,0.1,5.7,0.2,8.5-0.8c0.7-0.3,1.4-0.4,2.1-0.6c0.6-0.2,0.8-0.5,0.8-1.2C67.5,73,67.3,72,66.7,71c-0.5-0.8-1.1-1.3-1.9-1.6
				c-1.4-0.5-2.8-1.1-4.2-1.4c-2.8-0.7-5.6-1.3-8.4-2c-3.5-1-7-2-10.5-3c-3.7-1.1-7.3-2.1-11.1-2.6c-2.5-0.4-5-0.5-7.6-0.5
				c-3.8,0-7.7,0.3-11.4,1c-3.4,0.6-6.7,1.3-10.1,2C0,63,0,62.7,0,64.4c0,4.3,0,8.6,0,12.9c0,1.1,0,1.1,1.1,1c1.5-0.1,3-0.3,4.5-0.4
				c0.9-0.1,1.8,0,2.7,0c0.5,0,1.1,0,1.5-0.2c2.1-0.8,4.4-0.7,6.6-0.5c3.7,0.4,7.2,1.5,10.8,2.5c3.3,1,6.5,2,9.8,2.9
				c2.5,0.7,5,1.3,7.5,2.1c2.2,0.7,4.3,1.5,6.4,2.3c0.4,0.1,0.8,0.3,1.1,0.5c1.3,0.5,2.6,0.5,3.8-0.1c5.4-2.5,11.1-4.5,16.7-6.6
				c3.3-1.2,6.5-2.7,9.7-4c2.6-1.1,5.1-2.3,7.8-3.2c3-1.1,5.8-2.3,8.6-3.8c0.6-0.3,1.3-0.6,1.9-0.9c0.9-0.5,1.6-1.2,2.3-2
				c0.5-0.5,0.3-1.6-0.2-2.2c-0.6-0.7-1.3-1.1-2.1-1.3c-0.8-0.3-1.6-0.3-2.4-0.4c-2.7,0-5.3,0.3-8,0.8c-6.1,1.1-11.9,2.7-17.9,4.2
				C71.1,68,70,68.2,69,68.4c-0.6,0.1-0.6,0.2-0.5,0.8c0.3,1.3,0.7,2.6,0.9,3.9c0.1,0.6,0,1.3,0,2c-0.1,1.2-0.8,1.9-1.9,2.4
				c-1.3,0.6-2.6,0.9-4,1c-2.2,0.1-4.5,0.2-6.7,0.2c-3-0.1-6-0.5-9-1.3c-0.8-0.2-1.6-0.5-2.4-1C45.7,76.4,45.7,76.4,45.7,76.3z"/>
			<path class="st0" d="M94.2,53.6c-0.4-0.8-0.8-1.5-1.2-2.2c-1.5-2.4-3.2-4.6-5.3-6.6c-2.2-2.2-4.5-4.3-7-6.1
				c-4.2-3-9-4.8-14.1-5.6c-4.2-0.7-8.3-0.7-12.5-0.7c-2.7,0-5.5,0.1-8.2,0.2c-3.5,0.1-7,0.3-10.5,0.3c-2.2,0-4.4-0.3-6.6-0.4
				c-2.7-0.2-5.4-0.5-8-1.2c-4.4-1.1-8.7-2.3-12.7-4.2c-0.8-0.4-1.6-0.8-2.6-1.2c0.1,0.3,0.2,0.4,0.3,0.5c3.7,3.8,7.8,7.2,12.5,9.7
				c3.9,2,8,3.5,12.3,4.1c1.9,0.3,3.8,0.5,5.8,0.5c3.1,0.1,6.1,0.2,9.2,0.2c2.4,0,4.8-0.1,7.2-0.2c1,0,2,0.1,3.1,0.1
				c0.5,0,0.9,0.1,1.3,0.1c5,0,9.9,0.7,14.7,2c5.7,1.6,11,4,15.9,7.1c1.6,1.1,3.3,2.1,5,3.2c0.4,0.3,0.8,0.5,1.3,0.7
				C94.1,53.7,94.1,53.6,94.2,53.6z"/>
			<path class="st0" d="M58.3,42.6c0.1,0.5,0.2,0.9,0.3,1.2c0.3,1.2,0.7,2.3,1,3.5c0.5,2.2-0.6,4-2.8,4.6c-1.1,0.3-2.1,0.6-3.2,1
				c-0.3,0.1-0.5,0.2-0.8,0.3c0.1,0.4,0.2,0.8,0.4,1.1c0.8,1.8,2.1,3.2,3.7,4.3c2.4,1.7,5.1,2.7,8.1,2.5c1.6-0.1,3.1-0.5,4.3-1.7
				c0.4-0.4,0.8-0.8,1.3-1.1c1.1-0.8,1.8-1.9,2.3-3.2c1.1-2.6,1.3-5.3,0.9-8.1c0-0.5-0.1-1-0.2-1.4c-0.1-0.5-0.4-0.8-0.8-0.9
				c-3.5-0.8-6.9-1.8-10.4-2c-1.1,0-2.1-0.1-3.1-0.2C58.9,42.6,58.7,42.6,58.3,42.6z"/>
			<path class="st0" d="M50.1,43.6c-0.6,0.8-1,1.6-1.3,2.5c-1.2,4.4-0.8,8.5,1.9,12.3c2.5,3.6,5.8,5.9,10.1,6.9
				c2,0.5,3.9,0.3,5.8-0.2c3.4-0.8,6.2-2.6,8.5-5.2c2.8-3.1,3.9-6.7,3.6-10.8c0-0.4-0.2-0.8-0.3-1.2c-0.1-0.4-0.4-0.5-0.8-0.5
				c-0.8,0.1-1.3,0.6-1.4,1.5c0,0.5-0.1,1,0,1.5c0.3,3.2-1,5.8-3,8c-2,2.2-4.4,3.8-7.4,4.3c-3.6,0.7-7.1,0.3-10.1-2.1
				c-2.7-2.1-4.3-5-4.8-8.5c-0.4-2.4,0-4.6,0.5-6.9c0-0.2,0.1-0.3,0.1-0.5c0.1-0.3,0-0.6-0.4-0.8C51,44,50.6,43.8,50.1,43.6z"/>
		</g>
		<text transform="matrix(1 0 0 1 109.4434 58.3818)" class="st0 st1 st2">PLEDGE YOUR EYES</text>
	</g>
	<g>
		<rect x="-0.5" y="0" class="st0" width="301" height="99.7"/>
		<g>
			<path d="M45.7,76.3c0.1,0,0.3-0.1,0.4-0.1c1.4,0,2.7,0.1,4.1,0.1c0.3,0,0.6,0,1,0c1.6,0.1,3.3,0.2,5,0.3c2.9,0.1,5.7,0.2,8.5-0.8
				c0.7-0.3,1.4-0.4,2.1-0.6c0.6-0.2,0.8-0.5,0.8-1.2C67.5,73,67.3,72,66.7,71c-0.5-0.8-1.1-1.3-1.9-1.6c-1.4-0.5-2.8-1.1-4.2-1.4
				c-2.8-0.7-5.6-1.3-8.4-2c-3.5-1-7-2-10.5-3c-3.7-1.1-7.3-2.1-11.1-2.6c-2.5-0.4-5-0.5-7.6-0.5c-3.8,0-7.7,0.3-11.4,1
				c-3.4,0.6-6.7,1.3-10.1,2C0,63,0,62.7,0,64.4c0,4.3,0,8.6,0,12.9c0,1.1,0,1.1,1.1,1c1.5-0.1,3-0.3,4.5-0.4c0.9-0.1,1.8,0,2.7,0
				c0.5,0,1.1,0,1.5-0.2c2.1-0.8,4.4-0.7,6.6-0.5c3.7,0.4,7.2,1.5,10.8,2.5c3.3,1,6.5,2,9.8,2.9c2.5,0.7,5,1.3,7.5,2.1
				c2.2,0.7,4.3,1.5,6.4,2.3c0.4,0.1,0.8,0.3,1.1,0.5c1.3,0.5,2.6,0.5,3.8-0.1c5.4-2.5,11.1-4.5,16.7-6.6c3.3-1.2,6.5-2.7,9.7-4
				c2.6-1.1,5.1-2.3,7.8-3.2c3-1.1,5.8-2.3,8.6-3.8c0.6-0.3,1.3-0.6,1.9-0.9c0.9-0.5,1.6-1.2,2.3-2c0.5-0.5,0.3-1.6-0.2-2.2
				c-0.6-0.7-1.3-1.1-2.1-1.3c-0.8-0.3-1.6-0.3-2.4-0.4c-2.7,0-5.3,0.3-8,0.8c-6.1,1.1-11.9,2.7-17.9,4.2C71.1,68,70,68.2,69,68.4
				c-0.6,0.1-0.6,0.2-0.5,0.8c0.3,1.3,0.7,2.6,0.9,3.9c0.1,0.6,0,1.3,0,2c-0.1,1.2-0.8,1.9-1.9,2.4c-1.3,0.6-2.6,0.9-4,1
				c-2.2,0.1-4.5,0.2-6.7,0.2c-3-0.1-6-0.5-9-1.3c-0.8-0.2-1.6-0.5-2.4-1C45.7,76.4,45.7,76.4,45.7,76.3z"/>
			<path d="M94.2,53.6c-0.4-0.8-0.8-1.5-1.2-2.2c-1.5-2.4-3.2-4.6-5.3-6.6c-2.2-2.2-4.5-4.3-7-6.1c-4.2-3-9-4.8-14.1-5.6
				c-4.2-0.7-8.3-0.7-12.5-0.7c-2.7,0-5.5,0.1-8.2,0.2c-3.5,0.1-7,0.3-10.5,0.3c-2.2,0-4.4-0.3-6.6-0.4c-2.7-0.2-5.4-0.5-8-1.2
				c-4.4-1.1-8.7-2.3-12.7-4.2c-0.8-0.4-1.6-0.8-2.6-1.2c0.1,0.3,0.2,0.4,0.3,0.5c3.7,3.8,7.8,7.2,12.5,9.7c3.9,2,8,3.5,12.3,4.1
				c1.9,0.3,3.8,0.5,5.8,0.5c3.1,0.1,6.1,0.2,9.2,0.2c2.4,0,4.8-0.1,7.2-0.2c1,0,2,0.1,3.1,0.1c0.5,0,0.9,0.1,1.3,0.1
				c5,0,9.9,0.7,14.7,2c5.7,1.6,11,4,15.9,7.1c1.6,1.1,3.3,2.1,5,3.2c0.4,0.3,0.8,0.5,1.3,0.7C94.1,53.7,94.1,53.6,94.2,53.6z"/>
			<path d="M58.3,42.6c0.1,0.5,0.2,0.9,0.3,1.2c0.3,1.2,0.7,2.3,1,3.5c0.5,2.2-0.6,4-2.8,4.6c-1.1,0.3-2.1,0.6-3.2,1
				c-0.3,0.1-0.5,0.2-0.8,0.3c0.1,0.4,0.2,0.8,0.4,1.1c0.8,1.8,2.1,3.2,3.7,4.3c2.4,1.7,5.1,2.7,8.1,2.5c1.6-0.1,3.1-0.5,4.3-1.7
				c0.4-0.4,0.8-0.8,1.3-1.1c1.1-0.8,1.8-1.9,2.3-3.2c1.1-2.6,1.3-5.3,0.9-8.1c0-0.5-0.1-1-0.2-1.4c-0.1-0.5-0.4-0.8-0.8-0.9
				c-3.5-0.8-6.9-1.8-10.4-2c-1.1,0-2.1-0.1-3.1-0.2C58.9,42.6,58.7,42.6,58.3,42.6z"/>
			<path d="M50.1,43.6c-0.6,0.8-1,1.6-1.3,2.5c-1.2,4.4-0.8,8.5,1.9,12.3c2.5,3.6,5.8,5.9,10.1,6.9c2,0.5,3.9,0.3,5.8-0.2
				c3.4-0.8,6.2-2.6,8.5-5.2c2.8-3.1,3.9-6.7,3.6-10.8c0-0.4-0.2-0.8-0.3-1.2c-0.1-0.4-0.4-0.5-0.8-0.5c-0.8,0.1-1.3,0.6-1.4,1.5
				c0,0.5-0.1,1,0,1.5c0.3,3.2-1,5.8-3,8c-2,2.2-4.4,3.8-7.4,4.3c-3.6,0.7-7.1,0.3-10.1-2.1c-2.7-2.1-4.3-5-4.8-8.5
				c-0.4-2.4,0-4.6,0.5-6.9c0-0.2,0.1-0.3,0.1-0.5c0.1-0.3,0-0.6-0.4-0.8C51,44,50.6,43.8,50.1,43.6z"/>
		</g>
		<text transform="matrix(1 0 0 1 109.4434 58.3818)" class="st1 st2">PLEDGE YOUR EYES</text>
	</g>
</g>
</svg>
