<?xml version="1.0" encoding="utf-8"?>
<!-- Generator: Adobe Illustrator 22.0.0, SVG Export Plug-In . SVG Version: 6.00 Build 0)  -->
<svg version="1.1" id="Layer_1" xmlns="http://www.w3.org/2000/svg" xmlns:xlink="http://www.w3.org/1999/xlink" x="0px" y="0px"
	 viewBox="0 0 307.7 145.7" style="enable-background:new 0 0 307.7 145.7;" xml:space="preserve">
<style type="text/css">
	.st0{fill:#FFCC33;}
	.st1{fill:#FFFFFF;}
</style>
<g>
	<path class="st0" d="M288.2,145H19.5c-10.4,0-18.9-8.5-18.9-18.9V19.6C0.5,9.2,9.1,0.7,19.5,0.7h268.8c10.4,0,18.9,8.5,18.9,18.9
		v106.5C307.1,136.5,298.6,145,288.2,145z"/>
</g>
<g>
	<path class="st1" d="M44.1,37.5c13.1,0,22.3,7.1,22.3,20.2c0,12.2-8.8,18.8-21.1,18.9l-0.5,7.1H30.6l-0.5-17.5h5.7
		c8.9,0,15-1.6,14.9-8.5c0-4.2-2.6-6.9-6.8-6.9c-4.6,0-7.2,2.8-7.2,7.2H21.6C21.3,46.6,29.2,37.5,44.1,37.5z M37.9,108.2
		c-5.8,0-9.6-3.9-9.6-8.7c0-5,3.9-8.9,9.6-8.9c5.7,0,9.5,3.9,9.5,8.9C47.4,104.3,43.5,108.2,37.9,108.2z"/>
</g>
<g>
	<path d="M83.4,49.6c2.7,0,4.8,1.4,5.7,3.8h-1.9c-0.7-1.5-2-2.3-3.8-2.3c-2.6,0-4.5,1.9-4.5,4.9c0,3,1.9,4.9,4.5,4.9
		c1.8,0,3.1-0.8,3.8-2.3h1.9c-0.9,2.4-3.1,3.7-5.7,3.7c-3.5,0-6.2-2.6-6.2-6.3C77.2,52.2,79.9,49.6,83.4,49.6z"/>
	<path d="M91.5,49h1.6v13.2h-1.6V49z"/>
	<path d="M95.6,49.7c0-0.6,0.5-1.1,1.1-1.1c0.6,0,1.1,0.5,1.1,1.1s-0.5,1.1-1.1,1.1C96.1,50.8,95.6,50.3,95.6,49.7z M95.9,52.4h1.6
		v9.8h-1.6V52.4z"/>
	<path d="M104.4,52.2c2.4,0,4,1.2,4.5,3.3h-1.7c-0.3-1.2-1.3-1.9-2.8-1.9c-1.8,0-3.1,1.3-3.1,3.6c0,2.4,1.3,3.7,3.1,3.7
		c1.4,0,2.4-0.7,2.8-1.9h1.7c-0.5,1.9-2.1,3.3-4.5,3.3c-2.8,0-4.8-2-4.8-5.1C99.7,54.2,101.6,52.2,104.4,52.2z"/>
	<path d="M111.1,49h1.6v7.7l3.8-4.3h2.3l-4.6,4.9l4.6,4.9h-2.2l-3.8-4.3v4.3h-1.6V49z"/>
	<path d="M125,49h1.6v4.8c0.6-1,1.9-1.6,3.2-1.6c2.2,0,3.9,1.4,3.9,4.2v5.7h-1.6v-5.5c0-2-1.1-3-2.7-3c-1.7,0-2.8,1-2.8,3.1v5.4H125
		V49z"/>
	<path d="M140.6,62.3c-2.8,0-4.8-2-4.8-5.1c0-3.1,2-5,4.8-5c2.8,0,4.7,2,4.7,4.7c0,0.4,0,0.6-0.1,1h-7.8c0.1,2,1.5,3.1,3.2,3.1
		c1.5,0,2.4-0.7,2.7-1.8h1.7C144.6,60.9,143,62.3,140.6,62.3z M137.4,56.6h6.2c0-1.9-1.4-3-3.1-3C138.9,53.6,137.6,54.7,137.4,56.6z
		"/>
	<path d="M149,62.1h-1.6v-9.8h1.6V54c0.6-1.1,1.6-1.8,3.1-1.8v1.7h-0.4c-1.5,0-2.7,0.7-2.7,3V62.1z"/>
	<path d="M158.2,62.3c-2.8,0-4.8-2-4.8-5.1c0-3.1,2-5,4.8-5c2.8,0,4.7,2,4.7,4.7c0,0.4,0,0.6-0.1,1h-7.8c0.1,2,1.5,3.1,3.2,3.1
		c1.5,0,2.4-0.7,2.7-1.8h1.7C162.2,60.9,160.7,62.3,158.2,62.3z M155.1,56.6h6.2c0-1.9-1.4-3-3.1-3
		C156.6,53.6,155.3,54.7,155.1,56.6z"/>
	<path d="M170.1,53.7h-1.3v-1.3h1.3v-2.5h1.6v2.5h2.5v1.3h-2.5v5.7c0,1,0.4,1.3,1.4,1.3h1.2v1.4h-1.5c-1.7,0-2.7-0.7-2.7-2.7V53.7z"
		/>
	<path d="M180.5,62.3c-2.8,0-4.9-2-4.9-5.1c0-3.1,2.2-5,4.9-5c2.8,0,4.9,1.9,4.9,5C185.5,60.4,183.3,62.3,180.5,62.3z M180.5,60.9
		c1.7,0,3.3-1.2,3.3-3.6c0-2.5-1.6-3.6-3.3-3.6c-1.7,0-3.3,1.2-3.3,3.6C177.3,59.7,178.8,60.9,180.5,60.9z"/>
</g>
<g>
	<path d="M89.3,78.3h-6.7V82h5.9v3.4h-5.9v4h6.7v3.5H78.2V74.7h11.1V78.3z"/>
	<path d="M108.5,74.7v18.2H104l-7.4-11.2v11.2h-4.4V74.7h4.4L104,86V74.7H108.5z"/>
	<path d="M126,91.2l4,4.8h-5.4l-2.3-3.1c-0.6,0.1-1.3,0.2-2,0.2c-5.2,0-9.4-3.9-9.4-9.3s4.2-9.3,9.4-9.3c5.2,0,9.3,3.8,9.3,9.3
		C129.6,87,128.2,89.6,126,91.2z M120.3,89.1c2.9,0,4.8-2.1,4.8-5.3c0-3.2-1.9-5.3-4.8-5.3c-3,0-4.8,2-4.8,5.3
		C115.5,87,117.3,89.1,120.3,89.1z"/>
	<path d="M132,74.7h4.4v10.9c0,2.2,1.1,3.4,3.2,3.4s3.2-1.2,3.2-3.4V74.7h4.4v10.9c0,5-3.5,7.5-7.7,7.5c-4.2,0-7.5-2.5-7.5-7.5V74.7
		z"/>
	<path d="M150.4,74.7h4.4v18.2h-4.4V74.7z"/>
	<path d="M165.4,74.7c4.5,0,6.7,2.6,6.7,5.7c0,2.3-1.2,4.4-4,5.3l4.2,7.2h-5l-3.8-6.9h-1.1v6.9H158V74.7H165.4z M165.2,78.4h-2.7
		v4.5h2.7c1.7,0,2.4-0.9,2.4-2.3C167.6,79.3,166.8,78.4,165.2,78.4z"/>
	<path d="M186,78.3h-6.7V82h5.9v3.4h-5.9v4h6.7v3.5h-11.1V74.7H186V78.3z"/>
	<path d="M203,93.1c-5.2,0-9.4-3.9-9.4-9.3s4.2-9.3,9.4-9.3c5.2,0,9.3,3.8,9.3,9.3S208.1,93.1,203,93.1z M203,89.1
		c2.9,0,4.8-2.1,4.8-5.3c0-3.2-1.9-5.3-4.8-5.3c-3,0-4.8,2-4.8,5.3C198.2,87,200,89.1,203,89.1z"/>
	<path d="M231,74.7v18.2h-4.4l-7.4-11.2v11.2h-4.4V74.7h4.4l7.4,11.3V74.7H231z"/>
	<path d="M238.7,74.7v14.8h5.8v3.4h-10.2V74.7H238.7z"/>
	<path d="M246.6,74.7h4.4v18.2h-4.4V74.7z"/>
	<path d="M270.5,74.7v18.2h-4.4l-7.4-11.2v11.2h-4.4V74.7h4.4l7.4,11.3V74.7H270.5z"/>
	<path d="M284.8,78.3h-6.7V82h5.9v3.4h-5.9v4h6.7v3.5h-11.1V74.7h11.1V78.3z"/>
</g>
</svg>
