<svg xmlns="http://www.w3.org/2000/svg" viewBox="0 0 300 300"><defs><style>.cls-1{isolation:isolate;}.cls-2{fill:#fac184;}.cls-3{fill:#343538;}.cls-4{fill:#1d1d1f;}.cls-5{fill:#7e7d8a;}.cls-6{fill:#7f4822;}.cls-7{fill:#96582e;}.cls-8{fill:#e3c281;}.cls-9{fill:#e3a16a;}.cls-10,.cls-17{fill:none;stroke-miterlimit:10;}.cls-10{stroke:#fac184;stroke-linecap:round;stroke-width:8.15px;}.cls-11{fill:#836535;}.cls-12{opacity:0.19;mix-blend-mode:overlay;}.cls-13{fill:#a17c4a;}.cls-14{fill:#dbd7d7;}.cls-15{fill:#f4b378;}.cls-16{fill:#6d4e34;}.cls-17{stroke:#555c62;stroke-width:0.75px;}.cls-18{fill:#0097d0;}</style></defs><title>Artboard 1 copy 4</title><g class="cls-1"><g id="Layer_1" data-name="Layer 1"><rect id="_Rectangle_" data-name="&lt;Rectangle&gt;" class="cls-2" x="128.44" y="259.05" width="9.89" height="12.23"/><rect id="_Rectangle_2" data-name="&lt;Rectangle&gt;" class="cls-2" x="149.16" y="259.05" width="9.89" height="12.23"/><rect id="_Rectangle_3" data-name="&lt;Rectangle&gt;" class="cls-3" x="124.85" y="163.82" width="16.13" height="97.55"/><rect id="_Rectangle_4" data-name="&lt;Rectangle&gt;" class="cls-3" x="147.42" y="163.82" width="16.13" height="97.55"/><rect id="_Rectangle_5" data-name="&lt;Rectangle&gt;" class="cls-3" x="124.85" y="163.82" width="38.7" height="19.02"/><rect id="_Rectangle_6" data-name="&lt;Rectangle&gt;" class="cls-4" x="124.85" y="163.82" width="38.7" height="6.02"/><rect id="_Rectangle_7" data-name="&lt;Rectangle&gt;" class="cls-5" x="122.87" y="259.05" width="18.1" height="5.11"/><rect id="_Rectangle_8" data-name="&lt;Rectangle&gt;" class="cls-5" x="147.42" y="259.05" width="18.1" height="5.11"/><rect id="_Rectangle_9" data-name="&lt;Rectangle&gt;" class="cls-6" x="122.53" y="265.8" width="8.6" height="6.11"/><rect id="_Rectangle_10" data-name="&lt;Rectangle&gt;" class="cls-6" x="156.42" y="265.8" width="8.6" height="6.11" transform="translate(321.45 537.7) rotate(180)"/><rect id="_Rectangle_11" data-name="&lt;Rectangle&gt;" class="cls-6" x="109.46" y="276.99" width="30.81" height="2.01"/><rect id="_Rectangle_12" data-name="&lt;Rectangle&gt;" class="cls-6" x="146.69" y="276.99" width="30.81" height="2.01"/><path id="_Rectangle_13" data-name="&lt;Rectangle&gt;" class="cls-7" d="M114.6,270.32h24.92a0,0,0,0,1,0,0V277a0,0,0,0,1,0,0H111.41a0,0,0,0,1,0,0v-3.47A3.19,3.19,0,0,1,114.6,270.32Z"/><path id="_Rectangle_14" data-name="&lt;Rectangle&gt;" class="cls-7" d="M148,270.32h28.11a0,0,0,0,1,0,0V277a0,0,0,0,1,0,0H151.23A3.19,3.19,0,0,1,148,273.8v-3.47A0,0,0,0,1,148,270.32Z" transform="translate(324.19 547.31) rotate(180)"/><path class="cls-8" d="M118.11,164.74h51.23V90.38a4.91,4.91,0,0,0-4.83-5H123a4.92,4.92,0,0,0-4.84,5Z"/><path class="cls-9" d="M138.53,85.15a5.2,5.2,0,1,0,10.39,0V79.3H138.53Z"/><path class="cls-10" d="M164.47,91.78s7,32.73,27.43,31.3c27.58-2,20.06-47.21,20.06-47.21"/><path class="cls-11" d="M163.14,85.56a6.37,6.37,0,0,1,7.55,4.89c.06.27,6.27,27.28,20.76,26.28a12.38,12.38,0,0,0,9.49-4.8c6.5-8.22,6-25,5-33h12.8c.93,8.79,1.74,28.68-7.85,40.83a25.26,25.26,0,0,1-18.58,9.62q-.93.06-1.83.06c-24.19,0-31.94-34.85-32.27-36.37A6.36,6.36,0,0,1,163.14,85.56Z"/><path class="cls-12" d="M167.72,94.43v70.31H164v11a20.41,20.41,0,0,1-16.7-20.07l1.61-70.51,14,4.29A4.91,4.91,0,0,1,167.72,94.43Z"/><path class="cls-11" d="M148.92,85.39h15.59a4.91,4.91,0,0,1,4.83,5V172a20.42,20.42,0,0,1-20.42-20.42Z"/><path class="cls-12" d="M119.78,94.43v70.31l4.49-.1.14,10.9c9.5-1.74,15.79-9.87,15.79-19.88l-1.62-70.51-14,4.29A4.92,4.92,0,0,0,119.78,94.43Z"/><path class="cls-11" d="M138.58,85.39H123a4.92,4.92,0,0,0-4.84,5V172a20.42,20.42,0,0,0,20.42-20.42Z"/><path class="cls-13" d="M158.57,139.78h5.11a7.1,7.1,0,0,1,7.1,7.1v9.87a0,0,0,0,1,0,0H156.7a0,0,0,0,1,0,0V141.65A1.87,1.87,0,0,1,158.57,139.78Z" transform="translate(327.49 296.54) rotate(180)"/><path class="cls-11" d="M128.38,159.93h-.28c-17.46-.74-28.47-6.21-32.7-16.27-8.87-21.06,18.29-52.2,21.42-55.68a6.28,6.28,0,1,1,9.35,8.4c-9.74,10.87-23.57,32-19.18,42.41,2.72,6.45,13.27,8.23,21.65,8.58a6.29,6.29,0,0,1-.26,12.57Z"/><path class="cls-13" d="M195.13,123.29a12,12,0,0,0-8.44,5.87,23.75,23.75,0,0,0,3.83.32q.9,0,1.83-.06A26.13,26.13,0,0,0,205,125.3,12.14,12.14,0,0,0,195.13,123.29Z"/><polygon class="cls-13" points="138.58 85.39 129.35 85.45 129.35 100.49 133.97 100.49 131.16 105.97 138.58 126.95 138.58 85.39"/><polygon class="cls-13" points="148.93 85.39 158.15 85.45 158.15 100.49 153.54 100.49 156.34 105.97 148.93 126.95 148.93 85.39"/><path class="cls-13" d="M124.14,139.78h5.11a1.87,1.87,0,0,1,1.87,1.87v15.11a0,0,0,0,1,0,0H117a0,0,0,0,1,0,0v-9.87A7.1,7.1,0,0,1,124.14,139.78Z" transform="translate(248.16 296.54) rotate(180)"/><path class="cls-13" d="M93.86,132.74h-.18a24.51,24.51,0,0,0,1.72,10.9,21.26,21.26,0,0,0,5.44,7.61,16,16,0,0,0,1.33-6.51C102.17,138.12,98.45,132.74,93.86,132.74Z"/><path id="_Path_" data-name="&lt;Path&gt;" class="cls-14" d="M164,34.46c0,8.06-9.09,14.59-20.31,14.59s-20.32-6.53-20.32-14.59,9.1-11.55,20.32-11.55S164,26.41,164,34.46Z"/><circle id="_Path_2" data-name="&lt;Path&gt;" class="cls-9" cx="125.28" cy="59.04" r="5.74"/><circle id="_Path_3" data-name="&lt;Path&gt;" class="cls-9" cx="161.31" cy="59.04" r="5.74"/><path id="_Rectangle_15" data-name="&lt;Rectangle&gt;" class="cls-15" d="M124.08,36.38h38.68a0,0,0,0,1,0,0v32.3a13,13,0,0,1-13,13H137.11a13,13,0,0,1-13-13V36.38A0,0,0,0,1,124.08,36.38Z"/><path id="_Path_4" data-name="&lt;Path&gt;" class="cls-16" d="M137.13,66a.85.85,0,0,0-.72,1.29,8.16,8.16,0,0,0,14-.07.84.84,0,0,0-.73-1.28Z"/><path id="_Path_5" data-name="&lt;Path&gt;" class="cls-16" d="M135.87,56.67a1.46,1.46,0,1,1-1.45-1.46A1.45,1.45,0,0,1,135.87,56.67Z"/><path id="_Path_6" data-name="&lt;Path&gt;" class="cls-16" d="M151,56.67a1.45,1.45,0,1,0,1.45-1.46A1.45,1.45,0,0,0,151,56.67Z"/><path id="_Rectangle_16" data-name="&lt;Rectangle&gt;" class="cls-14" d="M125.07,32.92h1.5a0,0,0,0,1,0,0V51.76A1.54,1.54,0,0,1,125,53.3h-1.5A1.54,1.54,0,0,1,122,51.76V36A3.09,3.09,0,0,1,125.07,32.92Z"/><path id="_Rectangle_17" data-name="&lt;Rectangle&gt;" class="cls-14" d="M160.47,33.84H162a3.09,3.09,0,0,1,3.09,3.09V51.76a1.54,1.54,0,0,1-1.54,1.54H162a1.54,1.54,0,0,1-1.54-1.54V33.84A0,0,0,0,1,160.47,33.84Z"/><path id="_Rectangle_18" data-name="&lt;Rectangle&gt;" class="cls-14" d="M138.64,60.58h9.58a4.22,4.22,0,0,1,4.22,4.22v2a0,0,0,0,1,0,0h-18a0,0,0,0,1,0,0v-2A4.22,4.22,0,0,1,138.64,60.58Z"/><rect class="cls-17" x="127.04" y="54.62" width="14.75" height="6.99" rx="1.12" ry="1.12"/><rect class="cls-17" x="145.06" y="54.62" width="14.75" height="6.99" rx="1.12" ry="1.12"/><line class="cls-17" x1="141.79" y1="57.2" x2="145.06" y2="57.2"/><path class="cls-18" d="M298.29,284.5H1.71C.76,284.5,0,283.38,0,282H0c0-1.38.76-2.5,1.71-2.5H298.29c.95,0,1.71,1.12,1.71,2.5h0C300,283.38,299.24,284.5,298.29,284.5Z"/></g></g></svg>