<svg id="Layer_1" data-name="Layer 1" xmlns="http://www.w3.org/2000/svg" viewBox="0 0 300 300"><defs><style>.cls-1{fill:none;stroke:#fac184;stroke-linecap:round;stroke-miterlimit:10;stroke-width:5.51px;}.cls-2{fill:#fac184;}.cls-3{fill:#fff9d2;}.cls-4{fill:#85c64f;}.cls-5{fill:#b0d05a;}.cls-6{fill:#5fd5f6;}.cls-7{fill:#a1ebff;}.cls-8{fill:#6b88e2;}.cls-9{fill:#3fb7eb;}.cls-10{fill:#0097d0;}.cls-11{fill:#e3a16a;}.cls-12{fill:#7d3e22;}.cls-13{fill:#f4b378;}.cls-14{fill:#fff;}.cls-15{fill:#6d4e34;}</style></defs><title>Artboard 1</title><path class="cls-1" d="M132.16,145s-32.12,29.48-7,66.14"/><rect id="_Rectangle_" data-name="&lt;Rectangle&gt;" class="cls-2" x="155.82" y="230.82" width="9.73" height="41.26" transform="translate(321.37 502.89) rotate(180)"/><rect id="_Rectangle_2" data-name="&lt;Rectangle&gt;" class="cls-2" x="135.13" y="230.82" width="10.25" height="41.26" transform="translate(280.52 502.89) rotate(180)"/><rect id="_Rectangle_3" data-name="&lt;Rectangle&gt;" class="cls-3" x="155.82" y="263.11" width="9.73" height="8.96" transform="translate(321.37 535.18) rotate(180)"/><rect id="_Rectangle_4" data-name="&lt;Rectangle&gt;" class="cls-3" x="135.13" y="263.11" width="10.25" height="8.96" transform="translate(280.52 535.18) rotate(180)"/><rect id="_Rectangle_5" data-name="&lt;Rectangle&gt;" class="cls-4" x="152.29" y="202.6" width="16.69" height="28.21" transform="translate(321.27 433.42) rotate(180)"/><rect id="_Rectangle_6" data-name="&lt;Rectangle&gt;" class="cls-4" x="130.61" y="202.6" width="17.8" height="28.21" transform="translate(279.02 433.42) rotate(180)"/><rect id="_Rectangle_7" data-name="&lt;Rectangle&gt;" class="cls-4" x="132.88" y="202.6" width="34.73" height="17.08" transform="translate(300.5 422.28) rotate(180)"/><rect id="_Rectangle_8" data-name="&lt;Rectangle&gt;" class="cls-5" x="152.29" y="228.52" width="18.74" height="4.59" transform="translate(323.32 461.63) rotate(180)"/><rect id="_Rectangle_9" data-name="&lt;Rectangle&gt;" class="cls-5" x="128.43" y="228.52" width="19.99" height="4.59" transform="translate(276.84 461.63) rotate(180)"/><path id="_Rectangle_10" data-name="&lt;Rectangle&gt;" class="cls-6" d="M154.45,271.21h25.23a0,0,0,0,1,0,0v6a0,0,0,0,1,0,0h-22.5a2.73,2.73,0,0,1-2.73-2.73v-3.25A0,0,0,0,1,154.45,271.21Z" transform="translate(334.13 548.4) rotate(180)"/><rect id="_Rectangle_11" data-name="&lt;Rectangle&gt;" class="cls-7" x="161.97" y="267.15" width="7.72" height="5.48" transform="translate(331.67 539.78) rotate(180)"/><path id="_Rectangle_12" data-name="&lt;Rectangle&gt;" class="cls-6" d="M124.3,271.21h22.5a0,0,0,0,1,0,0v6a0,0,0,0,1,0,0H121.57a0,0,0,0,1,0,0v-3.25A2.73,2.73,0,0,1,124.3,271.21Z"/><rect id="_Rectangle_13" data-name="&lt;Rectangle&gt;" class="cls-7" x="131.55" y="267.15" width="7.72" height="5.48"/><rect id="_Rectangle_14" data-name="&lt;Rectangle&gt;" class="cls-8" x="153.78" y="277.19" width="27.65" height="1.81" transform="translate(335.21 556.19) rotate(180)"/><rect id="_Rectangle_15" data-name="&lt;Rectangle&gt;" class="cls-8" x="120.36" y="277.19" width="27.65" height="1.81" transform="translate(268.37 556.19) rotate(180)"/><path class="cls-9" d="M129.54,209.28H171V144.05a4.16,4.16,0,0,0-3.91-4.37H133.46a4.17,4.17,0,0,0-3.92,4.37Z"/><path class="cls-10" d="M141.86,139.55c0,.1,0,.2,0,.3a8,8,0,0,0,16,0c0-.1,0-.2,0-.3Z"/><path class="cls-11" d="M144.42,139.27a5.41,5.41,0,0,0,10.81,0v-6.08H144.42Z"/><path class="cls-1" d="M169.84,145.28s29.17,32.93,3.49,65.86"/><path class="cls-10" d="M122.72,170.79A52.1,52.1,0,0,1,135.86,149a5.46,5.46,0,1,0-7.39-8A65.87,65.87,0,0,0,112.57,167Z"/><path class="cls-10" d="M177.09,170.79l9.86-4.47a71.78,71.78,0,0,0-13-24.66,5.47,5.47,0,1,0-8.18,7.25A57.2,57.2,0,0,1,177.09,170.79Z"/><path id="_Path_" data-name="&lt;Path&gt;" class="cls-12" d="M171.23,87.34c0,8.35-9.43,15.13-21.07,15.13s-21.07-6.78-21.07-15.13,9.44-12,21.07-12S171.23,79,171.23,87.34Z"/><circle id="_Path_2" data-name="&lt;Path&gt;" class="cls-11" cx="131.11" cy="112.83" r="5.95"/><circle id="_Path_3" data-name="&lt;Path&gt;" class="cls-11" cx="168.48" cy="112.83" r="5.95"/><path id="_Rectangle_16" data-name="&lt;Rectangle&gt;" class="cls-13" d="M129.87,89.33H170a0,0,0,0,1,0,0v36a11,11,0,0,1-11,11h-18.1a11,11,0,0,1-11-11v-36A0,0,0,0,1,129.87,89.33Z"/><path id="_Path_4" data-name="&lt;Path&gt;" class="cls-14" d="M143.4,120a.88.88,0,0,0-.74,1.34,8.47,8.47,0,0,0,14.55-.07.89.89,0,0,0-.76-1.34Z"/><path id="_Path_5" data-name="&lt;Path&gt;" class="cls-15" d="M142.1,110.37a1.51,1.51,0,1,1-1.51-1.51A1.52,1.52,0,0,1,142.1,110.37Z"/><path id="_Path_6" data-name="&lt;Path&gt;" class="cls-15" d="M157.76,110.37a1.51,1.51,0,1,0,1.51-1.51A1.52,1.52,0,0,0,157.76,110.37Z"/><circle id="_Path_7" data-name="&lt;Path&gt;" class="cls-12" cx="135.57" cy="92.52" r="9.02"/><circle id="_Path_8" data-name="&lt;Path&gt;" class="cls-12" cx="149.94" cy="92.52" r="9.02"/><path id="_Path_9" data-name="&lt;Path&gt;" class="cls-12" d="M173.33,92.52a9,9,0,1,1-9-9A9,9,0,0,1,173.33,92.52Z"/><path id="_Path_10" data-name="&lt;Path&gt;" class="cls-12" d="M130.07,106.88h0a2.37,2.37,0,0,1-2.38-2.38V96.2h4.75v8.3A2.37,2.37,0,0,1,130.07,106.88Z"/><path id="_Path_11" data-name="&lt;Path&gt;" class="cls-12" d="M170,106.88h0a2.38,2.38,0,0,1-2.38-2.38V96.2h4.76v8.3A2.38,2.38,0,0,1,170,106.88Z"/><g id="_Group_" data-name="&lt;Group&gt;"><path class="cls-12" d="M149.34,77.39a1.29,1.29,0,0,1-1.29-1.29V73.42a1.29,1.29,0,1,1,2.58,0V76.1A1.29,1.29,0,0,1,149.34,77.39Z"/></g><g id="_Group_2" data-name="&lt;Group&gt;"><path class="cls-12" d="M149.35,77.52l-3.19-2.79a.65.65,0,0,1-.06-.91.64.64,0,0,1,.91-.06l2.31,2,2.25-2.09a.64.64,0,0,1,.88.94Z"/></g><path class="cls-10" d="M298.29,284.5H1.71C.76,284.5,0,283.38,0,282H0c0-1.38.76-2.5,1.71-2.5H298.29c.95,0,1.71,1.12,1.71,2.5h0C300,283.38,299.24,284.5,298.29,284.5Z"/></svg>