<svg xmlns="http://www.w3.org/2000/svg" xmlns:xlink="http://www.w3.org/1999/xlink" viewBox="0 0 300 300"><defs><style>.cls-1,.cls-15,.cls-20,.cls-30,.cls-33,.cls-36{fill:none;}.cls-2{fill:#c25437;}.cls-3{fill:#b54b2f;}.cls-4{fill:#27100a;}.cls-5{fill:#b36400;}.cls-6{fill:#bedef8;}.cls-7{fill:#8f5200;}.cls-8{fill:#70afe2;}.cls-9{fill:#98c5e7;}.cls-10{fill:#d57800;}.cls-11{isolation:isolate;}.cls-12{fill:#fac184;}.cls-13{fill:url(#New_Pattern_Swatch_36);}.cls-14{fill:url(#New_Pattern_Swatch_47);}.cls-15,.cls-30{stroke-linecap:round;}.cls-15{stroke-linejoin:round;stroke-width:9.75px;stroke:url(#New_Pattern_Swatch_46);}.cls-16{fill:#e49a57;}.cls-17{fill:url(#New_Pattern_Swatch_42);}.cls-18{fill:#40a4df;}.cls-19{opacity:0.37;}.cls-20{stroke:#dcf9ff;stroke-width:0.47px;}.cls-20,.cls-30,.cls-33,.cls-36{stroke-miterlimit:10;}.cls-21{fill:#3b87b7;}.cls-22{fill:url(#New_Pattern_Swatch_40);}.cls-23{fill:url(#New_Pattern_Swatch_38);}.cls-24{fill:#ff7676;}.cls-25{fill:#e3a16a;}.cls-26{fill:#f4b378;}.cls-27{fill:#6d4e34;}.cls-28{fill:#dbd7d7;}.cls-29{fill:url(#New_Pattern_Swatch_34);}.cls-30{stroke-width:4.88px;stroke:url(#New_Pattern_Swatch_36-5);}.cls-31{opacity:0.38;mix-blend-mode:overlay;}.cls-32{fill:url(#New_Pattern_Swatch_35);}.cls-33{stroke-width:10.36px;stroke:url(#New_Pattern_Swatch_34-3);}.cls-34{fill:url(#New_Pattern_Swatch_31);}.cls-35{fill:#34383b;}.cls-36{stroke:#fff;stroke-width:0.75px;}.cls-37{fill:#0097d0;}</style><pattern id="New_Pattern_Swatch_36" data-name="New Pattern Swatch 36" width="34.29" height="34.29" patternTransform="translate(18.57 -11.35)" patternUnits="userSpaceOnUse" viewBox="0 0 34.29 34.29"><rect class="cls-1" width="34.29" height="34.29"/><rect class="cls-5" width="34.29" height="34.29"/></pattern><pattern id="New_Pattern_Swatch_47" data-name="New Pattern Swatch 47" width="34.29" height="34.29" patternTransform="translate(18.57 -11.35)" patternUnits="userSpaceOnUse" viewBox="0 0 34.29 34.29"><rect class="cls-1" width="34.29" height="34.29"/><rect class="cls-10" width="34.29" height="34.29"/></pattern><pattern id="New_Pattern_Swatch_46" data-name="New Pattern Swatch 46" width="34.29" height="34.29" patternTransform="translate(0 -8.49)" patternUnits="userSpaceOnUse" viewBox="0 0 34.29 34.29"><rect class="cls-1" width="34.29" height="34.29"/><rect class="cls-9" width="34.29" height="34.29"/></pattern><pattern id="New_Pattern_Swatch_42" data-name="New Pattern Swatch 42" width="34.29" height="34.29" patternTransform="translate(18.57 -11.35)" patternUnits="userSpaceOnUse" viewBox="0 0 34.29 34.29"><rect class="cls-1" width="34.29" height="34.29"/><rect class="cls-8" width="34.29" height="34.29"/></pattern><pattern id="New_Pattern_Swatch_40" data-name="New Pattern Swatch 40" width="34.29" height="34.29" patternTransform="translate(18.57 -11.35)" patternUnits="userSpaceOnUse" viewBox="0 0 34.29 34.29"><rect class="cls-1" width="34.29" height="34.29"/><rect class="cls-7" width="34.29" height="34.29"/></pattern><pattern id="New_Pattern_Swatch_38" data-name="New Pattern Swatch 38" width="34.29" height="34.29" patternTransform="translate(-6.85 -15.35)" patternUnits="userSpaceOnUse" viewBox="0 0 34.29 34.29"><rect class="cls-1" width="34.29" height="34.29"/><rect class="cls-6" width="34.29" height="34.29"/></pattern><pattern id="New_Pattern_Swatch_34" data-name="New Pattern Swatch 34" width="34.29" height="34.29" patternTransform="translate(18.57 -11.35)" patternUnits="userSpaceOnUse" viewBox="0 0 34.29 34.29"><rect class="cls-1" width="34.29" height="34.29"/><rect class="cls-3" width="34.29" height="34.29"/></pattern><pattern id="New_Pattern_Swatch_36-5" data-name="New Pattern Swatch 36" width="34.29" height="34.29" patternTransform="translate(0 -8.49)" patternUnits="userSpaceOnUse" viewBox="0 0 34.29 34.29"><rect class="cls-1" width="34.29" height="34.29"/><rect class="cls-5" width="34.29" height="34.29"/></pattern><pattern id="New_Pattern_Swatch_35" data-name="New Pattern Swatch 35" width="34.29" height="34.29" patternTransform="translate(18.57 -11.35)" patternUnits="userSpaceOnUse" viewBox="0 0 34.29 34.29"><rect class="cls-1" width="34.29" height="34.29"/><rect class="cls-4" width="34.29" height="34.29"/></pattern><pattern id="New_Pattern_Swatch_34-3" data-name="New Pattern Swatch 34" width="34.29" height="34.29" patternTransform="translate(25.43 -4.49)" patternUnits="userSpaceOnUse" viewBox="0 0 34.29 34.29"><rect class="cls-1" width="34.29" height="34.29"/><rect class="cls-3" width="34.29" height="34.29"/></pattern><pattern id="New_Pattern_Swatch_31" data-name="New Pattern Swatch 31" width="34.29" height="34.29" patternTransform="translate(18.57 -11.35)" patternUnits="userSpaceOnUse" viewBox="0 0 34.29 34.29"><rect class="cls-1" width="34.29" height="34.29"/><rect class="cls-2" width="34.29" height="34.29"/></pattern></defs><title>Artboard 1 copy 5</title><g class="cls-11"><g id="Layer_1" data-name="Layer 1"><path class="cls-12" d="M187.4,270.47a6.41,6.41,0,0,1-6.42,6.41H170.45v-6.41Z"/><path class="cls-12" d="M166.2,270.47a6.41,6.41,0,0,1-6.42,6.41H149.25v-6.41Z"/><rect id="_Rectangle_" data-name="&lt;Rectangle&gt;" class="cls-13" x="133.73" y="276.88" width="34.64" height="2.26"/><polygon id="_Rectangle_2" data-name="&lt;Rectangle&gt;" class="cls-14" points="158.28 279.14 188.72 279.14 188.72 276.88 158.28 276.88 158.28 279.14"/><path class="cls-15" d="M164.17,108.35v15.54a24.28,24.28,0,0,1-24.28,24.28H109.18"/><path class="cls-16" d="M116.86,141.19h-7.68a7,7,0,1,0,0,14h7.68Z"/><rect class="cls-17" x="116.86" y="139.61" width="7.52" height="17.47"/><polygon id="_Path_" data-name="&lt;Path&gt;" class="cls-12" points="166.2 270.47 155.08 270.47 145.3 228.26 152.98 202.99 164.1 202.99 156.42 227.74 166.2 270.47"/><polygon id="_Path_2" data-name="&lt;Path&gt;" class="cls-12" points="187.4 270.47 176.28 270.47 166.5 227.39 174.18 202.99 185.3 202.99 177.62 227.21 187.4 270.47"/><path class="cls-18" d="M160.82,156.64c0,5.15-11.88,42.26-11.88,47h18.13l7-25.63h3.06l-7,25.63h18.13c0-4.76,11.88-41.87,11.88-47Z"/><g class="cls-19"><path class="cls-20" d="M162.17,156.64c0,5.15-11.88,47-11.88,47"/><path class="cls-20" d="M164.87,156.64c0,5.15-11.88,47-11.88,47"/><path class="cls-20" d="M167.57,156.64c0,5.15-11.88,47-11.88,47"/><path class="cls-20" d="M170.27,156.64c0,5.15-11.88,47-11.88,47"/><path class="cls-20" d="M173,156.64c0,5.15-11.88,47-11.88,47"/><path class="cls-20" d="M175.67,156.64c0,5.15-11.88,47-11.88,47"/></g><g class="cls-19"><path class="cls-20" d="M184.29,156.64c0,5.15-11.88,47-11.88,47"/><path class="cls-20" d="M187,156.64c0,5.15-11.88,47-11.88,47"/><path class="cls-20" d="M189.69,156.64c0,5.15-11.88,47-11.88,47"/><path class="cls-20" d="M192.38,156.64c0,5.15-11.87,47-11.87,47"/><path class="cls-20" d="M195.08,156.64c0,5.15-11.87,47-11.87,47"/><path class="cls-20" d="M197.78,156.64c0,5.15-11.87,47-11.87,47"/></g><rect id="_Rectangle_3" data-name="&lt;Rectangle&gt;" class="cls-21" x="146.72" y="200.79" width="20.35" height="5.75"/><rect id="_Rectangle_4" data-name="&lt;Rectangle&gt;" class="cls-21" x="168.17" y="200.79" width="20.35" height="5.75"/><path id="_Rectangle_5" data-name="&lt;Rectangle&gt;" class="cls-22" d="M138.77,269.39h13.39a0,0,0,0,1,0,0v7.49a0,0,0,0,1,0,0H135.93a0,0,0,0,1,0,0v-4.65A2.84,2.84,0,0,1,138.77,269.39Z"/><path id="_Rectangle_6" data-name="&lt;Rectangle&gt;" class="cls-13" d="M162.64,269.39h12a0,0,0,0,1,0,0v7.49a0,0,0,0,1,0,0H159.8a0,0,0,0,1,0,0v-4.65A2.84,2.84,0,0,1,162.64,269.39Z"/><path class="cls-23" d="M185.73,143c0,12.23-8.74,30.25-19.51,30.25s-19.5-18-19.5-30.25,8.73-22.16,19.5-22.16S185.73,130.71,185.73,143Z"/><rect id="_Rectangle_7" data-name="&lt;Rectangle&gt;" class="cls-24" x="179.58" y="167.84" width="12.28" height="4.52" rx="0.67" ry="0.67" transform="translate(245.07 414.85) rotate(-146.11)"/><circle id="_Path_3" data-name="&lt;Path&gt;" class="cls-25" cx="133.4" cy="66.46" r="6.45"/><path id="_Rectangle_8" data-name="&lt;Rectangle&gt;" class="cls-26" d="M141.39,34h20a11.75,11.75,0,0,1,11.75,11.75V91.94a0,0,0,0,1,0,0h-33.7a9.79,9.79,0,0,1-9.79-9.79V45.75A11.75,11.75,0,0,1,141.39,34Z"/><path id="_Path_4" data-name="&lt;Path&gt;" class="cls-27" d="M135.69,63.79a1.64,1.64,0,1,1-1.63-1.63A1.63,1.63,0,0,1,135.69,63.79Z"/><polygon class="cls-23" points="191.78 176.35 155.37 176.35 155.37 161.02 191.78 163.72 191.78 176.35"/><path id="_Path_5" data-name="&lt;Path&gt;" class="cls-27" d="M152.67,63.79a1.64,1.64,0,1,0,1.64-1.63A1.63,1.63,0,0,0,152.67,63.79Z"/><path id="_Path_6" data-name="&lt;Path&gt;" class="cls-27" d="M136.44,75.06a1,1,0,0,0-.8,1.45,9.17,9.17,0,0,0,15.77-.08,1,1,0,0,0-.82-1.44Z"/><path id="_Path_7" data-name="&lt;Path&gt;" class="cls-26" d="M174.18,66.46A6.45,6.45,0,0,0,167.73,60a7.36,7.36,0,0,0-.82.06V72.86a7.37,7.37,0,0,0,.82,0A6.45,6.45,0,0,0,174.18,66.46Z"/><path class="cls-28" d="M164,51.28a2,2,0,0,0-2,2V64a2.46,2.46,0,0,0,4.92,0V60.07a7.36,7.36,0,0,1,.82-.06,6.45,6.45,0,0,1,6.45,6.45h1.56a2,2,0,0,0,2-2V53.25a2,2,0,0,0-2-2Z"/><path class="cls-28" d="M136.31,60.61h-5.59A1.69,1.69,0,0,1,129,58.92h0a1.69,1.69,0,0,1,1.69-1.69h5.59A1.69,1.69,0,0,1,138,58.92h0A1.69,1.69,0,0,1,136.31,60.61Z"/><path class="cls-28" d="M157.1,60.53h-5.59a1.69,1.69,0,0,1-1.69-1.69h0a1.69,1.69,0,0,1,1.69-1.68h5.59a1.68,1.68,0,0,1,1.69,1.68h0A1.68,1.68,0,0,1,157.1,60.53Z"/><polygon class="cls-23" points="179.24 80.44 172.97 74.99 155.22 87.38 179.24 95.99 179.24 80.44"/><path class="cls-23" d="M171.1,80.44h14.52a17.64,17.64,0,0,1,17.64,17.64v58.56a0,0,0,0,1,0,0h-48a0,0,0,0,1,0,0V96.31A15.87,15.87,0,0,1,171.1,80.44Z"/><path class="cls-29" d="M178,80.44h-.12a11.13,11.13,0,0,0-10.91,11.25c0,21.47,0,78.74,0,106.8h36.31V105.73A25.29,25.29,0,0,0,178,80.44Z"/><path class="cls-30" d="M140.34,165.63V154.89a12.74,12.74,0,1,0-25.47,0v121"/><g class="cls-31"><path class="cls-32" d="M171.82,103.74v15.55A16.89,16.89,0,0,1,155,136.15H139.09l2.6,10.61c.06.1.1.21.16.31a11.62,11.62,0,0,1,1.23,3l.38.9H155a31.74,31.74,0,0,0,31.7-31.71V103.74Z"/></g><path class="cls-33" d="M179.24,99.69v15.55A24.28,24.28,0,0,1,155,139.52H139.09"/><path class="cls-26" d="M131.93,132.53h-7.68a7,7,0,0,0,0,14h7.68Z"/><rect class="cls-34" x="131.93" y="130.96" width="7.52" height="17.47"/><rect class="cls-35" x="109.11" y="267.74" width="11.41" height="11.88" rx="0.9" ry="0.9"/><path class="cls-36" d="M140.64,68.25a6.44,6.44,0,1,1-6.43-6.44A6.43,6.43,0,0,1,140.64,68.25Z"/><circle class="cls-36" cx="152.84" cy="68.25" r="6.44"/><line class="cls-36" x1="140.39" y1="66.46" x2="146.72" y2="66.46"/><path class="cls-37" d="M298.29,284.5H1.71C.76,284.5,0,283.38,0,282H0c0-1.38.76-2.5,1.71-2.5H298.29c.95,0,1.71,1.12,1.71,2.5h0C300,283.38,299.24,284.5,298.29,284.5Z"/></g></g></svg>