<svg xmlns="http://www.w3.org/2000/svg" viewBox="0 0 300 300"><defs><style>.cls-1{isolation:isolate;}.cls-2{fill:#296d71;}.cls-3,.cls-9{fill:#2b2929;}.cls-3{opacity:0.24;mix-blend-mode:overlay;}.cls-16,.cls-4{fill:none;stroke-linecap:round;stroke-miterlimit:10;}.cls-4{stroke:#efb472;stroke-width:7.52px;}.cls-5{fill:#e2e2e8;}.cls-6{fill:#fac184;}.cls-7{fill:#389fa6;}.cls-8{fill:#473e3d;}.cls-10{fill:#e3a16a;}.cls-11{fill:#f4b378;}.cls-12{fill:#fff;}.cls-13{fill:#6d4e34;}.cls-14{fill:#512816;}.cls-15{fill:#333030;}.cls-16{stroke:#fac184;stroke-width:7.84px;}.cls-17{fill:#0097d0;}</style></defs><title>Artboard 1 copy 2</title><g class="cls-1"><g id="Layer_1" data-name="Layer 1"><rect id="_Rectangle_" data-name="&lt;Rectangle&gt;" class="cls-2" x="125.55" y="156.44" width="40.59" height="21.36" transform="translate(291.7 334.24) rotate(180)"/><polygon class="cls-3" points="166.15 156.58 125.55 156.58 125.55 162.2 166.15 158.07 166.15 156.58"/><path class="cls-4" d="M123.5,91.47s-13,50.5-5.07,86.65"/><path class="cls-5" d="M123,166.2c-3.5-32.89,6.58-72.69,6.7-73.13a6.36,6.36,0,1,0-12.32-3.2c-.49,1.9-10.76,42.39-7,77.56Z"/><path class="cls-5" d="M127.08,85.21h37.49a3.12,3.12,0,0,1,3.12,3.12v69.49a0,0,0,0,1,0,0H124a0,0,0,0,1,0,0V88.33A3.12,3.12,0,0,1,127.08,85.21Z" transform="translate(291.65 243.03) rotate(180)"/><rect id="_Rectangle_2" data-name="&lt;Rectangle&gt;" class="cls-6" x="152" y="239.83" width="10.38" height="31.05" transform="translate(314.38 510.7) rotate(180)"/><rect id="_Rectangle_3" data-name="&lt;Rectangle&gt;" class="cls-6" x="130.27" y="239.83" width="10.38" height="31.05" transform="translate(270.91 510.7) rotate(180)"/><rect id="_Rectangle_4" data-name="&lt;Rectangle&gt;" class="cls-2" x="149.23" y="163.7" width="16.91" height="91.73" transform="translate(315.38 419.13) rotate(180)"/><rect id="_Rectangle_5" data-name="&lt;Rectangle&gt;" class="cls-2" x="125.55" y="165.6" width="16.91" height="89.83" transform="translate(268.02 421.04) rotate(180)"/><rect id="_Rectangle_6" data-name="&lt;Rectangle&gt;" class="cls-7" x="149.23" y="254.61" width="18.99" height="5.38" transform="translate(317.45 514.6) rotate(180)"/><rect id="_Rectangle_7" data-name="&lt;Rectangle&gt;" class="cls-7" x="123.48" y="254.61" width="18.99" height="5.38" transform="translate(265.95 514.6) rotate(180)"/><path id="_Rectangle_8" data-name="&lt;Rectangle&gt;" class="cls-8" d="M150.76,269.87h29.48a0,0,0,0,1,0,0v7a0,0,0,0,1,0,0h-25a4.47,4.47,0,0,1-4.47-4.47v-2.54A0,0,0,0,1,150.76,269.87Z" transform="translate(331 546.75) rotate(180)"/><rect id="_Rectangle_9" data-name="&lt;Rectangle&gt;" class="cls-8" x="159.55" y="265.11" width="9.02" height="6.43" transform="translate(328.12 536.64) rotate(180)"/><path id="_Rectangle_10" data-name="&lt;Rectangle&gt;" class="cls-8" d="M116.81,269.87h25a0,0,0,0,1,0,0v7a0,0,0,0,1,0,0H112.33a0,0,0,0,1,0,0v-2.54A4.47,4.47,0,0,1,116.81,269.87Z"/><rect id="_Rectangle_11" data-name="&lt;Rectangle&gt;" class="cls-8" x="124" y="265.11" width="9.02" height="6.43"/><rect id="_Rectangle_12" data-name="&lt;Rectangle&gt;" class="cls-9" x="149.97" y="276.88" width="32.32" height="2.12" transform="translate(332.26 555.88) rotate(180)"/><rect id="_Rectangle_13" data-name="&lt;Rectangle&gt;" class="cls-9" x="110.92" y="276.88" width="32.32" height="2.12" transform="translate(254.15 555.88) rotate(180)"/><path class="cls-10" d="M140,83.74a5.33,5.33,0,1,0,10.65,0v-6H140Z"/><path id="_Path_" data-name="&lt;Path&gt;" class="cls-10" d="M158.73,57.25a6,6,0,1,0,6-6A6,6,0,0,0,158.73,57.25Z"/><path id="_Path_2" data-name="&lt;Path&gt;" class="cls-10" d="M120.94,57.25a6,6,0,1,0,6-6A6,6,0,0,0,120.94,57.25Z"/><path id="_Rectangle_14" data-name="&lt;Rectangle&gt;" class="cls-11" d="M138.41,33.4H153a13,13,0,0,1,13,13V81.1a0,0,0,0,1,0,0H129.55A4.12,4.12,0,0,1,125.43,77V46.38A13,13,0,0,1,138.41,33.4Z" transform="translate(291.43 114.5) rotate(180)"/><path id="_Path_3" data-name="&lt;Path&gt;" class="cls-12" d="M152.32,64.52a.89.89,0,0,1,.75,1.36,8.54,8.54,0,0,1-14.72-.07.9.9,0,0,1,.77-1.36Z"/><ellipse id="_Path_4" data-name="&lt;Path&gt;" class="cls-13" cx="136.27" cy="54.75" rx="1.53" ry="1.53"/><path id="_Path_5" data-name="&lt;Path&gt;" class="cls-13" d="M157.17,54.75a1.53,1.53,0,1,1-1.53-1.53A1.53,1.53,0,0,1,157.17,54.75Z"/><path id="_Rectangle_15" data-name="&lt;Rectangle&gt;" class="cls-14" d="M133,26.31h30.63a0,0,0,0,1,0,0V31a8.18,8.18,0,0,1-8.18,8.18H124.8a0,0,0,0,1,0,0V34.5A8.18,8.18,0,0,1,133,26.31Z" transform="translate(288.41 65.46) rotate(180)"/><path class="cls-14" d="M124,32.55A6.7,6.7,0,0,1,129.28,26h0l29.3-6.2A12.84,12.84,0,0,1,148.71,35L124,40.22Z"/><path id="_Rectangle_16" data-name="&lt;Rectangle&gt;" class="cls-14" d="M126.24,39.15h1.27a0,0,0,0,1,0,0V54.91a0,0,0,0,1,0,0H124a0,0,0,0,1,0,0V41.4A2.25,2.25,0,0,1,126.24,39.15Z" transform="translate(251.49 94.06) rotate(180)"/><path id="_Rectangle_17" data-name="&lt;Rectangle&gt;" class="cls-14" d="M163.74,41.79h1.2a2.14,2.14,0,0,1,2.14,2.14V57.38a0,0,0,0,1,0,0h-3.34a0,0,0,0,1,0,0V41.79A0,0,0,0,1,163.74,41.79Z" transform="translate(330.83 99.18) rotate(180)"/><path id="_Rectangle_18" data-name="&lt;Rectangle&gt;" class="cls-14" d="M155.55,30.08h4.15a7.38,7.38,0,0,1,7.38,7.38v6.31a0,0,0,0,1,0,0H162a6.45,6.45,0,0,1-6.45-6.45V30.08A0,0,0,0,1,155.55,30.08Z" transform="translate(322.64 73.84) rotate(180)"/><polygon class="cls-15" points="143.81 92.78 147 92.78 147.72 88.67 143 88.67 143.81 92.78"/><polygon class="cls-15" points="142.36 142.46 142.36 94.76 144.3 91.46 146.57 91.46 148.51 94.76 148.51 142.46 145.44 147.03 142.36 142.46"/><polygon class="cls-12" points="150.68 82.01 146.26 88.62 152.53 94.76 153.33 83.99 150.68 82.01"/><polygon class="cls-12" points="140.03 82.01 144.45 88.62 138.81 94.76 137.38 83.99 140.03 82.01"/><path class="cls-16" d="M166.62,91.69s13.91,18,17.08,38.78c4,26.49-27.53,13-27.53,13"/><path class="cls-5" d="M165.22,139.57c4.45,1,9,1.34,11-.2,1.3-1,1.69-3.91,1.08-7.92-2.85-18.74-15.56-35.46-15.8-35.79a6.47,6.47,0,1,1,10.2-8c.61.79,15,19.56,18.37,41.78,1.74,11.45-2.27,17.26-5.94,20.12s-8.16,3.79-12.62,3.79a40.94,40.94,0,0,1-9-1.11Z"/><path class="cls-17" d="M298.29,284.5H1.71C.76,284.5,0,283.38,0,282H0c0-1.38.76-2.5,1.71-2.5H298.29c.95,0,1.71,1.12,1.71,2.5h0C300,283.38,299.24,284.5,298.29,284.5Z"/></g></g></svg>