<svg id="Layer_1" data-name="Layer 1" xmlns="http://www.w3.org/2000/svg" viewBox="0 0 300 300"><defs><style>.cls-1{fill:#3d6e94;}.cls-2{fill:#fac184;}.cls-3{fill:#1a4b6c;}.cls-4{fill:#96582e;}.cls-5{fill:#7f4822;}.cls-6{fill:#fff;}.cls-7{fill:#e3a16a;}.cls-8{fill:#71381f;}.cls-9{fill:#f4b378;}.cls-10{fill:#6d4e34;}.cls-11{opacity:0.19;}.cls-12{fill:#5583a6;}.cls-13{fill:#143b55;}.cls-14{fill:#0097d0;}</style></defs><title>Artboard 1 copy 3</title><path class="cls-1" d="M135.13,162.34h-.26c-17-.75-27.76-6.31-31.89-16.5-8.64-21.36,17.83-52.93,20.88-56.46a6,6,0,0,1,8.66-.48,6.56,6.56,0,0,1,.46,9c-9.5,11-23,32.45-18.7,43,2.65,6.54,12.94,8.34,21.11,8.7a6.38,6.38,0,0,1-.26,12.74Z"/><rect id="_Rectangle_" data-name="&lt;Rectangle&gt;" class="cls-2" x="156.42" y="258.3" width="9.87" height="12.69" transform="translate(322.7 529.29) rotate(180)"/><rect id="_Rectangle_2" data-name="&lt;Rectangle&gt;" class="cls-2" x="135.75" y="258.3" width="9.87" height="12.69" transform="translate(281.36 529.29) rotate(180)"/><rect id="_Rectangle_3" data-name="&lt;Rectangle&gt;" class="cls-3" x="153.78" y="159.5" width="16.09" height="101.21" transform="translate(323.65 420.21) rotate(180)"/><rect id="_Rectangle_4" data-name="&lt;Rectangle&gt;" class="cls-3" x="131.26" y="159.5" width="16.09" height="101.21" transform="translate(278.61 420.21) rotate(180)"/><rect id="_Rectangle_5" data-name="&lt;Rectangle&gt;" class="cls-3" x="131.26" y="159.5" width="38.61" height="19.74" transform="translate(301.13 338.75) rotate(180)"/><rect id="_Rectangle_6" data-name="&lt;Rectangle&gt;" class="cls-1" x="153.78" y="258.3" width="18.06" height="5.3" transform="translate(325.63 521.91) rotate(180)"/><rect id="_Rectangle_7" data-name="&lt;Rectangle&gt;" class="cls-1" x="129.29" y="258.3" width="18.06" height="5.3" transform="translate(276.64 521.91) rotate(180)"/><path id="_Path_" data-name="&lt;Path&gt;" class="cls-4" d="M155.24,276.91h28a6.78,6.78,0,0,0-6.65-6.91H155.24Z"/><rect id="_Rectangle_8" data-name="&lt;Rectangle&gt;" class="cls-4" x="163.6" y="265.3" width="8.58" height="6.34" transform="translate(335.78 536.94) rotate(180)"/><path id="_Path_2" data-name="&lt;Path&gt;" class="cls-4" d="M146.73,276.91h-28a6.78,6.78,0,0,1,6.65-6.91h21.39Z"/><rect id="_Rectangle_9" data-name="&lt;Rectangle&gt;" class="cls-4" x="129.79" y="265.3" width="8.58" height="6.34"/><rect id="_Rectangle_10" data-name="&lt;Rectangle&gt;" class="cls-5" x="154.49" y="276.91" width="30.74" height="2.09" transform="translate(339.72 555.91) rotate(180)"/><rect id="_Rectangle_11" data-name="&lt;Rectangle&gt;" class="cls-5" x="117.34" y="276.91" width="30.74" height="2.09" transform="translate(265.42 555.91) rotate(180)"/><path class="cls-6" d="M126.4,165.16h47.39V93.63a4.64,4.64,0,0,0-4.47-4.8H130.88a4.65,4.65,0,0,0-4.48,4.8Z"/><path class="cls-7" d="M145,86.52a5.07,5.07,0,1,0,10.14,0V80.6H145Z"/><path id="_Path_3" data-name="&lt;Path&gt;" class="cls-8" d="M129.48,36c0,8.36,9.08,15.13,20.27,15.13S170,44.35,170,36s-9.07-12-20.26-12S129.48,27.63,129.48,36Z"/><ellipse id="_Path_4" data-name="&lt;Path&gt;" class="cls-7" cx="168.07" cy="61.49" rx="5.72" ry="5.95"/><path id="_Path_5" data-name="&lt;Path&gt;" class="cls-7" d="M126.4,61.49a5.73,5.73,0,1,0,5.73-6A5.85,5.85,0,0,0,126.4,61.49Z"/><path id="_Path_6" data-name="&lt;Path&gt;" class="cls-9" d="M150,85h0c10.66,0,19.29-9,19.29-20.07V38H130.68v27C130.68,76,139.32,85,150,85Z"/><path id="_Path_7" data-name="&lt;Path&gt;" class="cls-10" d="M156.25,68.65A.89.89,0,0,1,157,70a8,8,0,0,1-14-.07.88.88,0,0,1,.73-1.33Z"/><path id="_Path_8" data-name="&lt;Path&gt;" class="cls-10" d="M157.5,59A1.46,1.46,0,1,0,159,57.51,1.48,1.48,0,0,0,157.5,59Z"/><ellipse id="_Path_9" data-name="&lt;Path&gt;" class="cls-10" cx="140.99" cy="59.02" rx="1.45" ry="1.51"/><path id="_Path_10" data-name="&lt;Path&gt;" class="cls-8" d="M171.36,56.81h0v-20a2.33,2.33,0,0,0-2.28-2.38h-2.29V50.61A6.38,6.38,0,0,0,171.36,56.81Z"/><path id="_Path_11" data-name="&lt;Path&gt;" class="cls-8" d="M128.39,56.81h0a6.37,6.37,0,0,0,4.57-6.2V35.34h-2.28a2.34,2.34,0,0,0-2.29,2.38Z"/><path class="cls-11" d="M173.49,95.93v71.29h-3.62v11.14A20.49,20.49,0,0,1,153.59,158l1.58-71.49,13.61,4.35A4.9,4.9,0,0,1,173.49,95.93Z"/><path class="cls-1" d="M155.17,86.77h15.19a4.89,4.89,0,0,1,4.71,5.06v82.78c-11,0-19.9-9.27-19.9-20.7Z"/><path class="cls-11" d="M126.75,95.93v71.29l4.38-.1.13,11c9.27-1.77,15.4-10,15.4-20.16l-1.58-71.49-13.61,4.35A4.91,4.91,0,0,0,126.75,95.93Z"/><path class="cls-1" d="M145.08,86.77H129.89a4.89,4.89,0,0,0-4.71,5.06v82.78c11,0,19.9-9.27,19.9-20.7Z"/><path class="cls-8" d="M132.94,50h0V42.73a4.78,4.78,0,0,1,4.68-4.87h24.52a4.77,4.77,0,0,1,4.67,4.87V50h0a2.32,2.32,0,0,0,2.27-2.36V35H130.34v2.83h.34v9.75A2.31,2.31,0,0,0,132.94,50Z"/><polygon class="cls-12" points="145.08 86.77 136.09 86.83 136.09 102.08 140.58 102.08 137.85 107.63 145.08 128.91 145.08 86.77"/><polygon class="cls-12" points="155.17 86.77 164.16 86.83 164.16 102.08 159.66 102.08 162.4 107.63 155.17 128.91 155.17 86.77"/><path class="cls-1" d="M164.87,162.34a6.38,6.38,0,0,1-.26-12.74c8.17-.36,18.46-2.16,21.11-8.71,4.44-11-10.68-33.7-18.7-43a6.55,6.55,0,0,1,.47-9,6,6,0,0,1,8.65.48c3.05,3.53,29.52,35.1,20.88,56.46-4.13,10.19-14.86,15.75-31.89,16.5Z"/><path class="cls-9" d="M173.43,159.36V148.55a55.47,55.47,0,0,1-8.82,1,6.38,6.38,0,0,0,.26,12.74h.26q3.28-.15,6.25-.54c.77-.1,1.5-.23,2.24-.36A13.08,13.08,0,0,1,173.43,159.36Z"/><path class="cls-6" d="M173.84,148.48c-1.44.31-2.92.55-4.39.72l1.92,12.58a55.06,55.06,0,0,0,6.86-1.29l-2.29.54Z"/><path id="_Path_12" data-name="&lt;Path&gt;" class="cls-13" d="M140.1,177.19l-7.67,5.35a.68.68,0,0,1-1-.2l-1.39-2.16a.74.74,0,0,1,.19-1l7.67-5.36a.7.7,0,0,1,1,.2l1.39,2.16A.76.76,0,0,1,140.1,177.19Z"/><path id="_Path_13" data-name="&lt;Path&gt;" class="cls-13" d="M161,177.19l7.67,5.35a.68.68,0,0,0,1-.2l1.4-2.16a.75.75,0,0,0-.19-1l-7.67-5.36a.7.7,0,0,0-1,.2l-1.4,2.16A.77.77,0,0,0,161,177.19Z"/><path class="cls-14" d="M298.29,284.5H1.71C.76,284.5,0,283.38,0,282H0c0-1.38.76-2.5,1.71-2.5H298.29c.95,0,1.71,1.12,1.71,2.5h0C300,283.38,299.24,284.5,298.29,284.5Z"/></svg>