<svg id="Layer_1" data-name="Layer 1" xmlns="http://www.w3.org/2000/svg" xmlns:xlink="http://www.w3.org/1999/xlink" viewBox="0 0 300 300"><defs><style>.cls-1,.cls-2{fill:none;}.cls-2{stroke:#fac184;stroke-linecap:round;stroke-miterlimit:10;stroke-width:7.04px;}.cls-3{fill:#eb9830;}.cls-4{fill:#fac184;}.cls-5{fill:#fff9d2;}.cls-6{fill:#44444a;}.cls-7{fill:#7e7d8a;}.cls-8{fill:#c9e147;}.cls-9{fill:#daea83;}.cls-10{fill:#80c951;}.cls-11{fill:#fbc751;}.cls-12{fill:#e3a16a;}.cls-13{fill:#512816;}.cls-14{fill:#f4b378;}.cls-15{fill:#6d4e34;}.cls-16{clip-path:url(#clip-path);}.cls-17{fill:#db4b4b;}.cls-18{fill:#d55214;}.cls-19{fill:#ff6409;}.cls-20{fill:#a83e19;}.cls-21{fill:#0097d0;}</style><clipPath id="clip-path"><path id="_Clipping_Path_" data-name="&lt;Clipping Path&gt;" class="cls-1" d="M146.45,99a.91.91,0,0,0-.77,1.38,8.73,8.73,0,0,0,15-.07.9.9,0,0,0-.78-1.37Z"/></clipPath></defs><title>Artboard 1 copy</title><path class="cls-2" d="M132.81,125.26s-53.09,44.76,7.32,46.6"/><path class="cls-3" d="M120.43,149c4.36-5.89,11.38-14.63,15.24-16.45,2.66-1.26,4.31-6.58,3.38-9.37a5.8,5.8,0,0,0-8-3.46c-.8.37-9.49,5.58-20.82,21.35Z"/><rect id="_Rectangle_" data-name="&lt;Rectangle&gt;" class="cls-4" x="159.6" y="252.66" width="10.19" height="18.39" transform="translate(329.39 523.71) rotate(180)"/><rect id="_Rectangle_2" data-name="&lt;Rectangle&gt;" class="cls-4" x="138.26" y="252.66" width="10.19" height="18.39" transform="translate(286.71 523.71) rotate(180)"/><rect id="_Rectangle_3" data-name="&lt;Rectangle&gt;" class="cls-5" x="159.6" y="260.77" width="10.19" height="10.28" transform="translate(329.39 531.82) rotate(180)"/><rect id="_Rectangle_4" data-name="&lt;Rectangle&gt;" class="cls-5" x="138.26" y="260.77" width="10.19" height="10.28" transform="translate(286.71 531.82) rotate(180)"/><rect id="_Rectangle_5" data-name="&lt;Rectangle&gt;" class="cls-6" x="155.9" y="191.35" width="17.48" height="61.65" transform="translate(329.28 444.34) rotate(180)"/><rect id="_Rectangle_6" data-name="&lt;Rectangle&gt;" class="cls-6" x="133.77" y="191.35" width="17.69" height="61.65" transform="translate(285.22 444.34) rotate(180)"/><rect id="_Rectangle_7" data-name="&lt;Rectangle&gt;" class="cls-6" x="133.64" y="191.35" width="39.85" height="19.59" transform="translate(307.12 402.28) rotate(180)"/><rect id="_Rectangle_8" data-name="&lt;Rectangle&gt;" class="cls-7" x="155.9" y="250.34" width="19.62" height="5.26" transform="translate(331.43 505.95) rotate(180)"/><rect id="_Rectangle_9" data-name="&lt;Rectangle&gt;" class="cls-7" x="131.6" y="250.34" width="19.85" height="5.26" transform="translate(283.05 505.95) rotate(180)"/><path id="_Rectangle_10" data-name="&lt;Rectangle&gt;" class="cls-8" d="M158.38,270.06h28.94a0,0,0,0,1,0,0v6.86a0,0,0,0,1,0,0H161.87a3.48,3.48,0,0,1-3.48-3.48v-3.38A0,0,0,0,1,158.38,270.06Z" transform="translate(345.71 546.99) rotate(180)"/><rect id="_Rectangle_11" data-name="&lt;Rectangle&gt;" class="cls-9" x="167.01" y="265.4" width="8.86" height="6.29" transform="translate(342.89 537.1) rotate(180)"/><path id="_Rectangle_12" data-name="&lt;Rectangle&gt;" class="cls-8" d="M124.14,270.06H149.6a0,0,0,0,1,0,0v6.86a0,0,0,0,1,0,0H120.66a0,0,0,0,1,0,0v-3.38A3.48,3.48,0,0,1,124.14,270.06Z"/><rect id="_Rectangle_13" data-name="&lt;Rectangle&gt;" class="cls-9" x="132.11" y="265.4" width="8.86" height="6.29"/><rect id="_Rectangle_14" data-name="&lt;Rectangle&gt;" class="cls-10" x="157.61" y="276.93" width="31.73" height="2.07" transform="translate(346.95 555.93) rotate(180)"/><rect id="_Rectangle_15" data-name="&lt;Rectangle&gt;" class="cls-10" x="119.27" y="276.93" width="31.73" height="2.07" transform="translate(270.26 555.93) rotate(180)"/><path class="cls-3" d="M129.81,199h47.6V124.17a4.78,4.78,0,0,0-4.5-5H134.3a4.78,4.78,0,0,0-4.49,5Z"/><path class="cls-11" d="M130.24,195.13l-.43,0V199h47.6v-3.88Z"/><rect class="cls-11" x="129.81" y="138.85" width="47.6" height="22.77"/><path class="cls-11" d="M145.37,119.18c0,.1,0,.19,0,.28a7.74,7.74,0,0,0,15.48,0c0-.09,0-.18,0-.28Z"/><path class="cls-12" d="M147.85,118.91a5.23,5.23,0,1,0,10.46,0V113H147.85Z"/><path class="cls-2" d="M174,125.58S197,166,177.3,210.4"/><path class="cls-3" d="M177.35,154.63l11.82-4.4a104.86,104.86,0,0,0-9.94-27.95,6.19,6.19,0,1,0-10.76,6.12A95.8,95.8,0,0,1,177.35,154.63Z"/><path id="_Path_" data-name="&lt;Path&gt;" class="cls-13" d="M175.15,65.32c0,8.61-9.73,15.6-21.73,15.6s-21.72-7-21.72-15.6S141.42,53,153.42,53,175.15,56.7,175.15,65.32Z"/><circle id="_Path_2" data-name="&lt;Path&gt;" class="cls-12" cx="133.78" cy="91.6" r="6.14"/><path id="_Path_3" data-name="&lt;Path&gt;" class="cls-12" d="M178.45,91.6a6.14,6.14,0,1,1-6.14-6.13A6.14,6.14,0,0,1,178.45,91.6Z"/><path id="_Path_4" data-name="&lt;Path&gt;" class="cls-14" d="M153.18,115.84h0A20.68,20.68,0,0,1,132.5,95.16V67.37h41.37V95.16A20.68,20.68,0,0,1,153.18,115.84Z"/><path id="_Path_5" data-name="&lt;Path&gt;" class="cls-15" d="M146.45,99a.91.91,0,0,0-.77,1.38,8.73,8.73,0,0,0,15-.07.9.9,0,0,0-.78-1.37Z"/><g id="_Clip_Group_" data-name="&lt;Clip Group&gt;"><g class="cls-16"><circle id="_Path_6" data-name="&lt;Path&gt;" class="cls-17" cx="153.18" cy="106.95" r="6.14"/></g></g><path id="_Path_7" data-name="&lt;Path&gt;" class="cls-15" d="M145.11,89.06a1.56,1.56,0,1,1-3.11,0,1.56,1.56,0,0,1,3.11,0Z"/><path id="_Path_8" data-name="&lt;Path&gt;" class="cls-15" d="M161.26,89.06a1.56,1.56,0,1,0,1.55-1.55A1.56,1.56,0,0,0,161.26,89.06Z"/><path class="cls-13" d="M138.37,61.36a9.29,9.29,0,0,0-7,3.16V75.87c0,.3,0,.59,0,.89a9.3,9.3,0,1,0,7-15.4Z"/><path id="_Path_9" data-name="&lt;Path&gt;" class="cls-13" d="M162.49,70.66a9.3,9.3,0,1,1-9.3-9.3A9.3,9.3,0,0,1,162.49,70.66Z"/><path class="cls-13" d="M175.32,64.94a9.3,9.3,0,1,0,0,11.45Z"/><path id="_Path_10" data-name="&lt;Path&gt;" class="cls-13" d="M132.7,85.47h0A2.45,2.45,0,0,1,130.25,83V74.46h4.9V83A2.45,2.45,0,0,1,132.7,85.47Z"/><path id="_Path_11" data-name="&lt;Path&gt;" class="cls-13" d="M173.87,85.47h0A2.45,2.45,0,0,1,171.42,83V74.46h4.9V83A2.45,2.45,0,0,1,173.87,85.47Z"/><path class="cls-18" d="M140.37,52.74h26.25a10.12,10.12,0,0,1,10.12,10.12V76a0,0,0,0,1,0,0h-46.5a0,0,0,0,1,0,0V62.87A10.12,10.12,0,0,1,140.37,52.74Z"/><path class="cls-19" d="M160,52.74h0a13.42,13.42,0,0,0-13.42,13.42V76h26.83V66.16A13.41,13.41,0,0,0,160,52.74Z"/><path class="cls-20" d="M189.72,72H150.67A4.06,4.06,0,0,0,146.61,76h39A4.06,4.06,0,0,0,189.72,72Z"/><path class="cls-20" d="M157.5,52.63c0,.89-1.6,1.62-3.58,1.62s-3.58-.73-3.58-1.62S152,51,153.92,51,157.5,51.73,157.5,52.63Z"/><path class="cls-21" d="M298.29,284.5H1.71C.76,284.5,0,283.38,0,282H0c0-1.38.76-2.5,1.71-2.5H298.29c.95,0,1.71,1.12,1.71,2.5h0C300,283.38,299.24,284.5,298.29,284.5Z"/></svg>